<?xml version="1.0" encoding="UTF-8"?>
<svg version="1.1" xmlns="http://www.w3.org/2000/svg" width="1080" height="1080">
<path d="M0 0 C0.87293701 0.13277344 1.74587402 0.26554687 2.64526367 0.40234375 C12.0533694 1.92200073 20.48555892 4.97368595 29.1875 8.75 C30.56162738 9.14885208 31.93671108 9.54441745 33.3125 9.9375 C46.38925519 14.22970026 57.68069327 24.09792797 67.1875 33.75 C67.785625 34.306875 68.38375 34.86375 69 35.4375 C70.1875 36.75 70.1875 36.75 70.1875 38.75 C71.1775 39.08 72.1675 39.41 73.1875 39.75 C74.91099123 41.96888372 76.47007759 44.15315947 78 46.5 C78.6664856 47.51719116 78.6664856 47.51719116 79.34643555 48.55493164 C94.16014735 71.63713796 100.33161706 100.73557293 95.171875 127.82421875 C93.42711835 135.70365596 91.11957904 143.23493524 88.1875 150.75 C87.5275 150.75 86.8675 150.75 86.1875 150.75 C85.8575 151.74 85.5275 152.73 85.1875 153.75 C83.62109375 154.92578125 83.62109375 154.92578125 81.625 156.0625 C78.81867702 157.73540506 76.1580444 159.45300169 73.5625 161.4375 C69.39076006 164.62526229 65.12164656 167.66880039 60.83813477 170.70336914 C57.5459402 173.04264091 54.28406132 175.41440368 51.0546875 177.83984375 C50.37736572 178.34620361 49.70004395 178.85256348 49.00219727 179.37426758 C47.68832953 180.3590676 46.37874966 181.34961982 45.07397461 182.34643555 C40.52089861 185.75 40.52089861 185.75 37.1875 185.75 C37.1875 186.41 37.1875 187.07 37.1875 187.75 C35.0323556 189.43884409 32.87727466 191.01306282 30.625 192.5625 C30.01591797 192.98853516 29.40683594 193.41457031 28.77929688 193.85351562 C26.24421381 195.62673245 23.70390201 197.3923378 21.16064453 199.15380859 C19.48526043 200.32771718 17.83393994 201.53583001 16.1875 202.75 C16.1875 203.08 16.1875 203.41 16.1875 203.75 C17.19167969 203.90855469 18.19585938 204.06710937 19.23046875 204.23046875 C36.48972965 207.10772004 52.74833915 213.81187412 67.1875 223.75 C68.03054688 224.28882813 68.87359375 224.82765625 69.7421875 225.3828125 C70.50789063 225.87523437 71.27359375 226.36765625 72.0625 226.875 C73.23425781 227.62136719 73.23425781 227.62136719 74.4296875 228.3828125 C75.29980469 229.05957031 75.29980469 229.05957031 76.1875 229.75 C76.1875 230.41 76.1875 231.07 76.1875 231.75 C76.76628906 232.01167969 77.34507812 232.27335938 77.94140625 232.54296875 C85.65836528 236.68999543 92.74172212 244.3403702 97.1875 251.75 C97.1875 252.41 97.1875 253.07 97.1875 253.75 C97.8475 253.75 98.5075 253.75 99.1875 253.75 C107.62120747 264.71381971 114.15823986 277.73583603 117.49609375 291.1171875 C117.92656736 293.65717155 117.92656736 293.65717155 119.1875 294.75 C119.73515162 296.86322093 120.22472016 298.99158494 120.6875 301.125 C121.07421875 302.86910156 121.07421875 302.86910156 121.46875 304.6484375 C123.19209533 313.66939165 123.34733518 322.78165252 123.3125 331.9375 C123.31636719 332.96552734 123.32023437 333.99355469 123.32421875 335.05273438 C123.31699322 340.69948983 123.22289542 346.18954313 122.1875 351.75 C119.9375 353.9375 119.9375 353.9375 117.1875 355.75 C116.383125 356.554375 115.57875 357.35875 114.75 358.1875 C112.85280535 360.08469465 111.00925984 361.75635836 108.9375 363.4375 C106.17007806 365.4542322 106.17007806 365.4542322 105.1875 367.75 C104.5275 367.75 103.8675 367.75 103.1875 367.75 C102.8575 368.74 102.5275 369.73 102.1875 370.75 C100.9809375 371.2140625 100.9809375 371.2140625 99.75 371.6875 C96.60644103 372.99092689 96.63210005 373.80420801 95.1875 376.75 C93.61865234 378.4699707 93.61865234 378.4699707 91.7734375 380.17578125 C91.09410156 380.80806641 90.41476562 381.44035156 89.71484375 382.09179688 C88.64943359 383.06729492 88.64943359 383.06729492 87.5625 384.0625 C86.87542969 384.70123047 86.18835938 385.33996094 85.48046875 385.99804688 C83.39487761 387.92907732 81.29490508 389.84281302 79.1875 391.75 C78.47239258 392.4001709 77.75728516 393.0503418 77.02050781 393.72021484 C76.32538086 394.34234863 75.63025391 394.96448242 74.9140625 395.60546875 C74.29354004 396.16258545 73.67301758 396.71970215 73.03369141 397.29370117 C71.1875 398.75 71.1875 398.75 69.02099609 399.81762695 C66.64520758 401.02576761 66.32244187 402.40445346 65.1875 404.75 C64.1975 405.08 63.2075 405.41 62.1875 405.75 C61.8575 406.74 61.5275 407.73 61.1875 408.75 C59.9809375 409.2140625 59.9809375 409.2140625 58.75 409.6875 C55.61278732 410.9882955 55.61315712 411.80184868 54.1875 414.75 C50.41423197 419.12495131 45.95373344 422.88518154 41.578125 426.640625 C39.63903737 428.35158467 37.74385005 430.0893675 35.859375 431.859375 C35.27494629 432.40698486 34.69051758 432.95459473 34.08837891 433.51879883 C32.9149834 434.62137764 31.74530411 435.72792629 30.57958984 436.83862305 C26.40836835 440.75 26.40836835 440.75 24.1875 440.75 C23.8575 441.74 23.5275 442.73 23.1875 443.75 C22.5275 443.75 21.8675 443.75 21.1875 443.75 C20.8575 444.74 20.5275 445.73 20.1875 446.75 C19.5275 446.75 18.8675 446.75 18.1875 446.75 C18.1875 447.41 18.1875 448.07 18.1875 448.75 C16.89453125 450.0546875 16.89453125 450.0546875 15 451.625 C10.96652072 455.04800674 7.065912 458.59137581 3.1875 462.1875 C2.5994458 462.73196777 2.0113916 463.27643555 1.40551758 463.83740234 C-0.00131538 465.14070933 -1.40702828 466.44522519 -2.8125 467.75 C-2.4825 468.41 -2.1525 469.07 -1.8125 469.75 C0.02588765 470.34150811 0.02588765 470.34150811 2.23046875 470.703125 C6.04548062 471.47589982 9.63317587 472.49905746 13.31274414 473.75488281 C28.38168822 478.88831482 44.02536491 481.73917137 59.61328125 484.82421875 C63.36824318 485.57087278 67.08702367 486.4296638 70.8125 487.3125 C84.54491579 490.22395935 98.70172006 489.9127275 112.6796875 489.88037109 C115.44797164 489.87497961 118.21609554 489.88036949 120.984375 489.88671875 C129.3439271 489.88943023 137.61985535 489.82798509 145.9440918 488.95214844 C148.1875 488.75 148.1875 488.75 151.75 488.875 C155.86035985 488.72553237 159.37179929 487.7511122 163.3046875 486.59375 C165.15259338 486.0528995 167.0120369 485.54924319 168.8828125 485.09375 C180.06084985 482.35627147 189.83378621 477.36985172 199.1875 470.75 C203.8875 467.75 203.8875 467.75 206.1875 467.75 C206.1875 467.09 206.1875 466.43 206.1875 465.75 C207.65625 464.33984375 207.65625 464.33984375 209.6875 462.6875 C217.86970994 455.66383306 223.30073204 448.86818542 227.1875 438.75 C227.620625 437.63625 228.05375 436.5225 228.5 435.375 C229.19592325 432.71783849 229.26553932 430.48137612 229.1875 427.75 C229.5175 427.42 229.8475 427.09 230.1875 426.75 C231.64332213 411.78816454 230.71517239 396.74188542 221.359375 384.421875 C220.1875 382.75 220.1875 382.75 220.1875 380.75 C219.58550781 380.47671875 218.98351562 380.2034375 218.36328125 379.921875 C216.1875 378.75 216.1875 378.75 213.375 376 C204.60845606 368.19259654 191.24214111 365.24637059 179.921875 365.4765625 C171.53525249 366.09064574 165.95912677 370.90640781 160.1875 376.75 C159.8575 377.41 159.5275 378.07 159.1875 378.75 C158.5275 378.75 157.8675 378.75 157.1875 378.75 C155.38946445 385.68527998 153.73241152 392.61651746 155.1875 399.75 C159.99903322 407.73979369 167.23364936 411.27422041 175.9375 413.7890625 C183.59108126 415.62548214 191.3919191 416.71786173 199.1875 417.75 C199.1875 418.74 199.1875 419.73 199.1875 420.75 C191.28108134 428.48072047 183.28697559 431.71621786 172.375 431.9375 C160.75126999 431.77984152 151.93530588 428.48965004 143.375 420.375 C133.6563049 409.92454433 131.2309499 398.46883072 131.71875 384.51171875 C132.6536496 371.49324185 140.68701853 359.55791856 150.1640625 350.95703125 C162.94526164 340.09301198 179.14256995 335.79263579 195.76416016 336.953125 C213.08342992 338.62166386 229.42971327 344.53989604 242.1875 356.75 C242.1875 357.41 242.1875 358.07 242.1875 358.75 C242.8475 358.75 243.5075 358.75 244.1875 358.75 C248.42604105 363.30964265 252.29414906 368.34727477 255.1953125 373.8671875 C255.95758176 375.31369845 256.7759518 376.730753 257.6171875 378.1328125 C263.50834545 388.18588303 266.77625105 399.09198635 267.1875 410.75 C267.22746094 411.75546875 267.26742187 412.7609375 267.30859375 413.796875 C267.80210048 438.06579407 259.13628712 460.79850393 244.1875 479.75 C243.47464844 480.67167969 242.76179687 481.59335937 242.02734375 482.54296875 C241.39957031 483.33316406 240.77179687 484.12335938 240.125 484.9375 C239.49464844 485.73542969 238.86429688 486.53335937 238.21484375 487.35546875 C225.26776656 502.64748863 205.1163901 515.47283824 185.53515625 520.12109375 C182.82460364 520.84721516 180.21083931 521.76005228 177.5625 522.6875 C149.23240821 532.20160074 117.58665525 531.58456168 88.0625 529.9375 C86.93402145 529.87616882 86.93402145 529.87616882 85.78274536 529.81359863 C72.72817725 529.07976355 60.02323649 527.31100151 47.25 524.5 C46.27345459 524.28529053 45.29690918 524.07058105 44.29077148 523.84936523 C29.46810089 520.52780172 14.94254202 516.68185479 0.796875 511.12109375 C-2.6476034 509.81263929 -6.08959626 508.72073419 -9.625 507.6875 C-14.74038588 506.17183011 -19.40751096 504.18263487 -24.21875 501.89453125 C-26.63784917 500.82706731 -28.95258446 500.06704789 -31.5 499.375 C-36.80265212 497.89362417 -41.6946963 495.68789704 -46.70654297 493.44238281 C-52.00527039 491.07547656 -57.37192237 488.97198004 -62.8046875 486.9296875 C-65.67820514 485.80267149 -68.45652364 484.5612236 -71.25 483.25 C-76.48924868 480.81314015 -81.85266881 478.90813025 -87.30859375 477.015625 C-91.65394697 475.44606598 -95.87198075 473.63933158 -100.09375 471.765625 C-103.00352068 470.6786417 -105.75128106 470.24011642 -108.8125 469.75 C-110.53611745 469.16847557 -112.24533996 468.54254937 -113.9375 467.875 C-119.79909045 465.67690358 -125.71648875 464.14770424 -131.8125 462.75 C-132.93398438 462.49089844 -132.93398438 462.49089844 -134.078125 462.2265625 C-135.51109593 461.90281722 -136.94611158 461.58801888 -138.3828125 461.28125 C-140.1748811 460.88941506 -141.96061348 460.46832949 -143.7421875 460.03125 C-162.2520678 455.67598405 -179.99423993 455.2595058 -198.8125 457.75 C-199.92310791 457.89115234 -199.92310791 457.89115234 -201.05615234 458.03515625 C-211.14122248 459.40001683 -219.07443778 462.73671275 -227.8125 467.75 C-229.07900391 468.44416016 -229.07900391 468.44416016 -230.37109375 469.15234375 C-242.24083904 476.24950514 -250.33924314 489.81198577 -254.25 502.875 C-256.30036078 516.99970758 -253.58262101 528.77106344 -245.8125 540.75 C-245.255625 541.306875 -244.69875 541.86375 -244.125 542.4375 C-243.4753125 543.0871875 -243.4753125 543.0871875 -242.8125 543.75 C-242.8125 544.41 -242.8125 545.07 -242.8125 545.75 C-241.8225 546.08 -240.8325 546.41 -239.8125 546.75 C-239.8125 547.41 -239.8125 548.07 -239.8125 548.75 C-239.173125 548.9975 -238.53375 549.245 -237.875 549.5 C-234.53894725 550.86165418 -231.27013261 552.34398156 -227.99609375 553.84765625 C-220.07726122 557.12001817 -210.26486386 557.08184314 -202.3125 554 C-199.49799316 552.70597387 -196.9291196 551.24854154 -194.375 549.5 C-191.8125 547.75 -191.8125 547.75 -188.8125 547.75 C-188.379375 546.821875 -188.379375 546.821875 -187.9375 545.875 C-186.8125 543.75 -186.8125 543.75 -184.8125 541.75 C-182.1875 542.125 -182.1875 542.125 -179.8125 542.75 C-180.36978913 546.09373475 -181.16423889 548.78312999 -182.8125 551.75 C-183.4725 551.75 -184.1325 551.75 -184.8125 551.75 C-185.0496875 552.4821875 -185.286875 553.214375 -185.53125 553.96875 C-189.35355598 562.26595078 -198.64922613 567.45105414 -206.8125 570.75 C-207.53308594 571.06839844 -208.25367188 571.38679687 -208.99609375 571.71484375 C-221.61134945 576.45922934 -236.20202655 574.89342651 -248.2890625 569.51953125 C-265.08986036 561.08188 -277.45720657 547.81138394 -283.625 530 C-289.04688315 509.82930376 -284.37511962 487.90511841 -274.8125 469.75 C-272.94855018 466.64341697 -270.93544793 463.68450525 -268.8125 460.75 C-268.29300781 460.02554687 -267.77351563 459.30109375 -267.23828125 458.5546875 C-264.66650217 455.04359365 -262.13355579 451.59661924 -258.8125 448.75 C-258.1525 448.75 -257.4925 448.75 -256.8125 448.75 C-256.4721875 447.88375 -256.4721875 447.88375 -256.125 447 C-254.46401778 444.15260191 -252.49725439 442.62932807 -249.8125 440.75 C-249.1525 440.75 -248.4925 440.75 -247.8125 440.75 C-247.04907312 429.69193384 -246.55622745 418.65066339 -246.27734375 407.5703125 C-246.25611261 406.75255152 -246.23488148 405.93479053 -246.21300697 405.09224892 C-246.04739259 398.68675126 -245.89603693 392.28097122 -245.75 385.875 C-245.72792984 384.91465473 -245.70585968 383.95430946 -245.68312073 382.96486282 C-244.8690031 347.20535315 -244.59102968 311.4474381 -244.56755596 275.67982817 C-244.56440361 271.07749543 -244.55664492 266.47518729 -244.54708862 261.87286377 C-244.49082578 231.10435577 -244.94254734 200.46482651 -246.8125 169.75 C-246.89508559 168.36478842 -246.97747634 166.97956521 -247.05966187 165.59432983 C-247.3564202 147.7536004 -247.3564202 147.7536004 -255.0625 132.25 C-255.92875 131.5075 -255.92875 131.5075 -256.8125 130.75 C-256.8125 130.09 -256.8125 129.43 -256.8125 128.75 C-270.57930556 127.97400052 -280.58319662 133.15810077 -290.875 142.1875 C-293.8125 144.75 -293.8125 144.75 -295.8125 144.75 C-300.66644206 135.41390719 -304.91222546 125.8932867 -308.12109375 115.86328125 C-309.23824095 112.448724 -310.53115328 109.10590809 -311.8125 105.75 C-310.52284824 104.37437146 -309.18560707 103.04233607 -307.8125 101.75 C-307.1525 101.75 -306.4925 101.75 -305.8125 101.75 C-305.4825 100.76 -305.1525 99.77 -304.8125 98.75 C-303.24609375 97.390625 -303.24609375 97.390625 -301.25 96 C-298.34882202 93.90785389 -295.60682591 91.75619094 -292.9375 89.375 C-289.96841461 86.73193183 -286.92866333 84.21815383 -283.8125 81.75 C-280.11199593 78.81434175 -276.53197307 75.78660593 -272.99609375 72.65625 C-264.78139803 65.4849235 -256.27665121 58.62294427 -247.8125 51.75 C-246.92433594 51.00492187 -246.03617187 50.25984375 -245.12109375 49.4921875 C-242.8125 47.75 -242.8125 47.75 -240.8125 47.75 C-240.4825 46.76 -240.1525 45.77 -239.8125 44.75 C-238 43.21484375 -238 43.21484375 -235.8125 41.6875 C-232.79621816 39.67046147 -232.79621816 39.67046147 -230.8125 36.75 C-229.8225 36.42 -228.8325 36.09 -227.8125 35.75 C-226.1202188 34.10934772 -224.45757109 32.43798598 -222.8125 30.75 C-220.78598817 28.97613022 -218.7526772 27.22709222 -216.6875 25.5 C-216.1198291 25.02256348 -215.5521582 24.54512695 -214.96728516 24.05322266 C-210.51628865 20.31816416 -206.03740616 16.61790672 -201.515625 12.96875 C-199.60215279 11.39815431 -197.7193343 9.78986504 -195.859375 8.15625 C-194.89515625 7.3209375 -193.9309375 6.485625 -192.9375 5.625 C-192.07382812 4.85929687 -191.21015625 4.09359375 -190.3203125 3.3046875 C-187.8125 1.75 -187.8125 1.75 -185.34765625 1.8671875 C-180.39327325 3.5924426 -175.6113929 5.63319511 -170.8125 7.75 C-169.51699219 8.306875 -169.51699219 8.306875 -168.1953125 8.875 C-159.08400572 13.06678331 -150.63413756 19.51940897 -144.8125 27.75 C-144.8125 28.41 -144.8125 29.07 -144.8125 29.75 C-143.8225 30.08 -142.8325 30.41 -141.8125 30.75 C-140.35768158 32.9845055 -139.0979111 35.1427484 -137.875 37.5 C-137.52236084 38.17160156 -137.16972168 38.84320313 -136.80639648 39.53515625 C-131.15993265 50.62190383 -128.60253596 61.78917707 -128.75 74.1875 C-128.75451172 74.91904297 -128.75902344 75.65058594 -128.76367188 76.40429688 C-128.77531852 78.18623419 -128.79324809 79.96812863 -128.8125 81.75 C-121.57526173 76.81626195 -114.61063043 71.57127142 -107.69287109 66.20361328 C-104.16171208 63.47386507 -100.61041661 60.77040659 -97.0625 58.0625 C-91.88092674 54.10457696 -86.70815992 50.13686558 -81.57421875 46.1171875 C-80.70216797 45.44042969 -80.70216797 45.44042969 -79.8125 44.75 C-79.11769531 44.19570313 -78.42289063 43.64140625 -77.70703125 43.0703125 C-75.8125 41.75 -75.8125 41.75 -73.8125 41.75 C-73.8125 41.09 -73.8125 40.43 -73.8125 39.75 C-72.40721009 38.76671907 -70.99442729 37.79241622 -69.54589844 36.87402344 C-66.71947517 35.04122728 -64.09202323 32.9445744 -61.4375 30.875 C-60.29441415 29.99200194 -59.15118531 29.10918895 -58.0078125 28.2265625 C-56.12347607 26.76811494 -54.24355681 25.30466108 -52.3671875 23.8359375 C-48.96907795 21.21306206 -45.97115095 19.04957842 -41.8125 17.75 C-41.8125 17.09 -41.8125 16.43 -41.8125 15.75 C-40.203125 14.34765625 -40.203125 14.34765625 -38.0625 12.8125 C-37.36640625 12.30847656 -36.6703125 11.80445313 -35.953125 11.28515625 C-35.24671875 10.77855469 -34.5403125 10.27195312 -33.8125 9.75 C-32.75289062 8.91275391 -32.75289062 8.91275391 -31.671875 8.05859375 C-29.8125 6.75 -29.8125 6.75 -27.8125 6.75 C-27.8125 6.09 -27.8125 5.43 -27.8125 4.75 C-26.16015625 3.2421875 -26.16015625 3.2421875 -23.875 1.625 C-22.77865234 0.81675781 -22.77865234 0.81675781 -21.66015625 -0.0078125 C-14.97839938 -2.92248833 -6.99987123 -1.07491963 0 0 Z M-92.8125 104.75 C-94.89583079 106.49934898 -94.89583079 106.49934898 -96.8125 108.75 C-96.8125 110.07 -96.8125 111.39 -96.8125 112.75 C-97.94429688 113.09933594 -99.07609375 113.44867188 -100.2421875 113.80859375 C-101.72398631 114.26813895 -103.20575562 114.72777931 -104.6875 115.1875 C-105.43386719 115.41759766 -106.18023437 115.64769531 -106.94921875 115.88476562 C-110.96341601 117.10379647 -110.96341601 117.10379647 -114.8125 118.75 C-114.8125 119.41 -114.8125 120.07 -114.8125 120.75 C-115.369375 120.95625 -115.92625 121.1625 -116.5 121.375 C-122.722875 125.07508784 -126.26604096 132.18338648 -128.8125 138.75 C-128.8125 140.07 -128.8125 141.39 -128.8125 142.75 C-130.7925 142.75 -132.7725 142.75 -134.8125 142.75 C-134.8125 143.74 -134.8125 144.73 -134.8125 145.75 C-131.8425 146.245 -131.8425 146.245 -128.8125 146.75 C-129.1425 156.98 -129.4725 167.21 -129.8125 177.75 C-133.1125 178.74 -136.4125 179.73 -139.8125 180.75 C-141.07431095 181.78792772 -141.07431095 181.78792772 -140.92602539 184.06665039 C-140.91817017 185.56699829 -140.91817017 185.56699829 -140.91015625 187.09765625 C-140.90532227 188.71704102 -140.90532227 188.71704102 -140.90039062 190.36914062 C-140.89201172 191.50544922 -140.88363281 192.64175781 -140.875 193.8125 C-140.87048828 194.95267578 -140.86597656 196.09285156 -140.86132812 197.26757812 C-140.84949747 200.09510351 -140.8330141 202.9225264 -140.8125 205.75 C-137.8425 207.4 -134.8725 209.05 -131.8125 210.75 C-131.93367188 211.70777344 -132.05484375 212.66554688 -132.1796875 213.65234375 C-132.73010916 218.01747023 -133.27267164 222.38355188 -133.8125 226.75 C-133.90321777 227.48154297 -133.99393555 228.21308594 -134.08740234 228.96679688 C-134.9642858 236.07769881 -135.80841068 243.15875308 -136.25 250.3125 C-136.67749052 256.6219434 -137.87482401 262.65467719 -139.19140625 268.828125 C-139.74341366 272.31375671 -139.78508948 275.48155423 -139.72875977 278.99414062 C-139.90225631 284.7038463 -140.8594328 290.36705193 -141.66445923 296.01672363 C-142.1250942 299.25419773 -142.57067557 302.49369154 -143.01707458 305.7331543 C-143.25210995 307.43847953 -143.48776495 309.14371947 -143.72401428 310.84887695 C-144.95052836 319.70819213 -146.13684541 328.57252088 -147.29067993 337.44158936 C-147.51166406 339.13268777 -147.73491158 340.82349212 -147.96054077 342.51397705 C-149.41337339 352.60268239 -149.41337339 352.60268239 -149.86328125 362.765625 C-149.80421681 367.39991213 -150.42869143 371.69172527 -151.1875 376.25 C-152.63336589 385.39724552 -153.79669048 394.54639787 -154.8125 403.75 C-155.00110996 405.43621942 -155.18991882 407.1224166 -155.37890625 408.80859375 C-155.86116964 413.12191759 -156.33818971 417.43579472 -156.8125 421.75 C-158.45798828 421.69779297 -158.45798828 421.69779297 -160.13671875 421.64453125 C-164.5399217 421.77087182 -165.82444188 422.59119571 -168.8125 425.75 C-169.52137036 427.39915889 -170.19479038 429.06457511 -170.8125 430.75 C-162.23509342 433.81180842 -153.64804108 436.83047197 -145 439.6875 C-137.73239553 442.08892801 -130.50615792 444.59589741 -123.28735352 447.13989258 C-116.9436844 449.36944862 -110.57412437 451.51079409 -104.18847656 453.61669922 C-99.61790696 455.12972237 -95.08528748 456.72302417 -90.5625 458.375 C-71.94434706 465.24134126 -71.94434706 465.24134126 -52.46484375 467.703125 C-49.47118447 467.7415463 -47.32343599 468.01620535 -44.46875 468.70703125 C-39.74622533 469.84063728 -35.15479341 470.22026824 -30.3125 470.4375 C-29.52230469 470.48455078 -28.73210937 470.53160156 -27.91796875 470.58007812 C-22.42860356 470.85409717 -17.26075428 470.47461782 -11.8125 469.75 C-11.27823346 464.21821212 -11.27823346 464.21821212 -13.4375 459.375 C-17.52056489 456.58132402 -20.88608164 455.75 -25.8125 455.75 C-25.77866211 454.06185181 -25.77866211 454.06185181 -25.74414062 452.33959961 C-25.74673911 447.60353424 -26.28628724 443.00600205 -26.90625 438.31640625 C-27.1341158 436.51497411 -27.36198034 434.71354182 -27.58984375 432.91210938 C-27.95049433 430.11007518 -28.31304535 427.30829347 -28.67626953 424.5065918 C-29.02838499 421.77709816 -29.37375374 419.04680744 -29.71875 416.31640625 C-29.8281189 415.4911293 -29.93748779 414.66585236 -30.0501709 413.81556702 C-30.65003178 409.05551398 -30.90933043 404.42951684 -30.81509399 399.63114929 C-30.81191697 397.32719003 -31.17067379 395.24223064 -31.6875 393 C-32.71508351 387.87325182 -33.23634478 382.77802061 -33.6953125 377.578125 C-34.46665133 369.17806611 -35.3275556 360.79103973 -36.25 352.40625 C-36.44011154 350.67662018 -36.44011154 350.67662018 -36.63406372 348.91204834 C-37.02575175 345.35790697 -37.41886129 341.80392582 -37.8125 338.25 C-40.92370639 310.16079959 -40.92370639 310.16079959 -42.16625977 296.51989746 C-42.53019587 287.87011608 -42.53019587 287.87011608 -44.8125 279.75 C-44.85676161 278.39500928 -44.84802275 277.03800836 -44.80883789 275.68286133 C-44.75867558 270.97834034 -45.22550085 266.4778918 -45.87109375 261.82421875 C-46.09449325 260.12175689 -46.31779731 258.4192825 -46.54101562 256.71679688 C-46.89169124 254.09558769 -47.2449405 251.47475437 -47.60083008 248.85424805 C-48.41417956 242.82720805 -49.15975556 236.79662884 -49.8125 230.75 C-49.91330872 229.82817932 -50.01411743 228.90635864 -50.11798096 227.956604 C-50.39962307 225.20858424 -50.63159417 222.46090701 -50.84765625 219.70703125 C-50.97991859 218.44653206 -50.97991859 218.44653206 -51.11485291 217.16056824 C-51.26443163 214.87015604 -51.33869192 212.98539151 -50.8125 210.75 C-47.87280273 208.31518555 -47.87280273 208.31518555 -44.8125 206.75 C-42.92611179 202.97722358 -43.49811707 198.46476912 -43.4375 194.3125 C-43.40011719 193.34505859 -43.36273437 192.37761719 -43.32421875 191.38085938 C-43.29137178 188.7512772 -43.33548378 186.33644925 -43.8125 183.75 C-47.26435067 180.38218315 -51.02336819 180.11832337 -55.8125 178.75 C-55.8125 169.18 -55.8125 159.61 -55.8125 149.75 C-53.5025 148.76 -51.1925 147.77 -48.8125 146.75 C-49.3075 144.77 -49.3075 144.77 -49.8125 142.75 C-50.42609375 142.6984375 -51.0396875 142.646875 -51.671875 142.59375 C-53.8125 141.75 -53.8125 141.75 -55.015625 139.34375 C-55.36109375 138.3228125 -55.7065625 137.301875 -56.0625 136.25 C-58.47479151 129.96752118 -61.72967946 125.19326034 -66.8125 120.75 C-67.4725 120.75 -68.1325 120.75 -68.8125 120.75 C-68.8125 120.09 -68.8125 119.43 -68.8125 118.75 C-74.67047948 115.88609892 -80.38659836 114.7377064 -86.8125 113.75 C-87.3075 110.285 -87.3075 110.285 -87.8125 106.75 C-89.4625 106.09 -91.1125 105.43 -92.8125 104.75 Z " fill="#F0552C" transform="translate(558.8125,269.25)"/>
<path d="M0 0 C1.24620117 0.03077637 2.49240234 0.06155273 3.77636719 0.09326172 C9.92416818 0.29429565 15.6965405 0.7995405 21.69775391 2.14794922 C25.49589982 2.93496694 29.32661253 3.18749373 33.1875 3.5 C44.57655539 4.52843584 55.77203619 6.49192561 67 8.625 C67.90306885 8.79507568 68.8061377 8.96515137 69.73657227 9.14038086 C70.61112061 9.30932861 71.48566895 9.47827637 72.38671875 9.65234375 C73.16233154 9.80179443 73.93794434 9.95124512 74.73706055 10.10522461 C77.81718435 10.81269937 80.74306259 11.83356521 83.69921875 12.94140625 C86.09736616 13.72237693 86.09736616 13.72237693 89.0703125 14.0078125 C94.27972663 14.82599086 99.16159163 16.36636746 104.1875 17.9375 C105.21544678 18.25509277 106.24339355 18.57268555 107.30249023 18.89990234 C114.23303073 21.04986949 121.14824415 23.23417456 128 25.625 C129.71896484 26.22441406 129.71896484 26.22441406 131.47265625 26.8359375 C152.16294417 34.13839206 172.9388674 42.68828457 192 53.625 C193.68559888 54.54515784 195.37325359 55.46155564 197.0625 56.375 C199.04231333 57.4571511 201.02141404 58.54060644 203 59.625 C203.58668457 59.94452637 204.17336914 60.26405273 204.77783203 60.59326172 C212.84699682 64.99938153 220.75074535 69.61253917 228.5 74.5625 C229.24846191 75.03518311 229.99692383 75.50786621 230.76806641 75.99487305 C232.54944683 77.14914554 234.28066832 78.38018684 236 79.625 C236 80.285 236 80.945 236 81.625 C236.825 81.83125 237.65 82.0375 238.5 82.25 C242.34680559 83.76124505 245.05128078 85.7373524 248.265625 88.28515625 C249.96821495 89.68948083 249.96821495 89.68948083 252 90.625 C252 91.285 252 91.945 252 92.625 C252.66902344 92.83253906 253.33804688 93.04007812 254.02734375 93.25390625 C258.05300775 95.11068426 261.16097008 97.74963209 264.5625 100.5625 C265.87593679 101.63456228 267.18972854 102.70618985 268.50390625 103.77734375 C269.11121582 104.27733887 269.71852539 104.77733398 270.34423828 105.29248047 C271.6811766 106.36841815 273.06659022 107.38395247 274.46484375 108.37890625 C274.97144531 108.79011719 275.47804688 109.20132813 276 109.625 C276 110.285 276 110.945 276 111.625 C276.7425 111.8725 277.485 112.12 278.25 112.375 C281.23023087 113.72965039 282.89919252 115.1351541 285 117.625 C285 118.285 285 118.945 285 119.625 C285.515625 119.851875 286.03125 120.07875 286.5625 120.3125 C291.09525242 122.75321284 295.58636658 125.73408045 299 129.625 C299 130.285 299 130.945 299 131.625 C299.58910156 131.87507812 300.17820312 132.12515625 300.78515625 132.3828125 C303.29309705 133.78938247 304.62424578 135.28054334 306.4375 137.5 C308.39254506 139.81616803 310.12478397 141.72482718 312.5 143.625 C316.14696783 146.54257427 319.00601706 150.05634261 322 153.625 C322.804375 154.57375 323.60875 155.5225 324.4375 156.5 C326 158.625 326 158.625 326 160.625 C326.9590625 161.0271875 326.9590625 161.0271875 327.9375 161.4375 C330 162.625 330 162.625 331 165.625 C331.99 165.955 332.98 166.285 334 166.625 C334.66666667 167.95833333 335.33333333 169.29166667 336 170.625 C337.6454378 172.31262851 339.31288577 173.9790349 341 175.625 C344 179.24568966 344 179.24568966 344 181.625 C344.66 181.625 345.32 181.625 346 181.625 C347.18359375 183.26953125 347.18359375 183.26953125 348.4375 185.4375 C350.06467481 188.23787294 351.67836916 190.37707173 354 192.625 C358 198.225 358 198.225 358 200.625 C358.99 200.955 359.98 201.285 361 201.625 C362.359375 203.55859375 362.359375 203.55859375 363.75 206.0625 C365.90608865 209.83026491 368.19417303 213.36606256 370.75 216.875 C373.26082417 220.37911725 374.82100843 223.44493898 376 227.625 C376.66 227.955 377.32 228.285 378 228.625 C381.95520185 233.85561114 384.72248927 239.92029543 387.5703125 245.79296875 C388.93252988 248.49135018 390.44500444 251.03468356 392 253.625 C393.01533775 255.61725732 394.01389885 257.61811073 395 259.625 C395.62079476 260.84716875 396.24327829 262.06848072 396.8671875 263.2890625 C400.48847964 270.41613079 403.92414217 277.53754799 406.91796875 284.95703125 C407.91486249 287.41507611 408.970097 289.83321652 410.0625 292.25 C413.14552331 299.13707627 415.89333421 306.10279257 418.21875 313.28125 C419.09069601 315.89708804 420.04140791 318.47720619 421 321.0625 C423.27085701 327.25968611 425.12644821 333.54361056 426.92578125 339.890625 C427.68432842 342.5276108 428.45788498 345.15571257 429.25390625 347.78125 C429.57584961 348.85052734 429.57584961 348.85052734 429.90429688 349.94140625 C430.34342565 351.39821921 430.78614199 352.85395553 431.23242188 354.30859375 C432.55849476 358.73952006 433.39051427 363.02773621 434 367.625 C434.33 368.285 434.66 368.945 435 369.625 C435.144375 370.6975 435.28875 371.77 435.4375 372.875 C435.86763434 376.52979741 435.86763434 376.52979741 437 379.5 C438.01784331 382.68076035 438.34069565 385.67650676 438.68310547 388.98535156 C439.39461251 394.91201887 440.55521023 400.78381591 441.62695312 406.65429688 C442.60535312 412.27024116 443.1325924 417.55857663 443.01000977 423.25610352 C442.99383558 427.08386215 443.45748826 430.83256684 443.9375 434.625 C444.06801758 435.74841797 444.06801758 435.74841797 444.20117188 436.89453125 C444.64011102 440.88562669 444.64011102 440.88562669 446 444.625 C446.10093702 446.37911329 446.13837315 448.13704148 446.14526367 449.89404297 C446.15483345 451.54749222 446.15483345 451.54749222 446.16459656 453.23434448 C446.16626579 455.03260178 446.16626579 455.03260178 446.16796875 456.8671875 C446.17129715 458.10107208 446.17462555 459.33495667 446.17805481 460.60623169 C446.18312877 463.22739285 446.18546299 465.8485605 446.18530273 468.46972656 C446.18518228 472.44864569 446.20557525 476.42737647 446.22460938 480.40625 C446.22754677 482.95572822 446.22952925 485.50520776 446.23046875 488.0546875 C446.23765427 489.23328339 446.24483978 490.41187927 446.25224304 491.62619019 C446.23421033 498.27173129 445.70700416 504.54073787 444.46640015 511.07310486 C443.84008397 514.49997604 443.61737149 517.83370881 443.4375 521.3125 C442.93833658 530.63361277 441.71601867 539.69008164 440.10546875 548.875 C439.44627139 552.7103301 438.8879737 556.51717892 438.50390625 560.390625 C438.16904035 563.58259728 437.60783041 566.36719432 436.4375 569.375 C435.25445412 572.64543933 434.90016746 575.13086112 435 578.625 C434.53630005 579.5387439 434.53630005 579.5387439 434.06323242 580.47094727 C432.92380244 582.77937223 432.48682524 584.74644289 432.05078125 587.27734375 C431.09325857 592.37076768 429.72555517 597.24272451 428.1875 602.1875 C427.65038017 603.93859932 427.11393331 605.68990518 426.578125 607.44140625 C426.31193359 608.30910645 426.04574219 609.17680664 425.77148438 610.07080078 C425.04774967 612.46691232 424.35252647 614.86868579 423.671875 617.27734375 C421.59370412 624.61885857 419.32578862 631.64419014 416.2578125 638.6484375 C414.82615824 642.0363895 413.59484324 645.46788599 412.375 648.9375 C410.00301365 655.66921203 407.3318258 662.02873239 404.1015625 668.390625 C402.84263113 670.94420211 401.66890901 673.52901803 400.5 676.125 C395.23597978 687.77304475 389.07303282 698.8759265 382.6015625 709.89453125 C381.30255935 712.10917321 380.01858072 714.33037895 378.75 716.5625 C375.90012609 721.54977934 372.86743167 726.34377161 369.6640625 731.109375 C367.94106134 733.71409976 366.2815291 736.35257906 364.625 739 C361.48891494 743.96313461 358.10275607 748.69909078 354.6015625 753.41015625 C352.98534836 755.51955028 352.98534836 755.51955028 352 757.625 C351.34 757.625 350.68 757.625 350 757.625 C349.76152344 758.16253906 349.52304687 758.70007813 349.27734375 759.25390625 C344.86224562 767.44951654 337.95358087 774.79300447 332 781.9375 C331.53150635 782.50654053 331.0630127 783.07558105 330.58032227 783.66186523 C329.43214836 785.02243762 328.22121104 786.32958342 327 787.625 C326.34 787.625 325.68 787.625 325 787.625 C324.814375 788.32625 324.62875 789.0275 324.4375 789.75 C322.72467008 793.17565983 320.67952994 794.71538278 317.73828125 797.078125 C315.29726482 799.25035535 313.7614149 801.89176999 312 804.625 C308.6 807.625 308.6 807.625 306 807.625 C305.79375 808.16125 305.5875 808.6975 305.375 809.25 C303.47418297 812.53322941 301.02358811 815.31691747 298 817.625 C297.01 817.625 296.02 817.625 295 817.625 C295 818.615 295 819.605 295 820.625 C294.34 820.625 293.68 820.625 293 820.625 C292.67 821.615 292.34 822.605 292 823.625 C287.54285714 827.625 287.54285714 827.625 285 827.625 C284.67 828.615 284.34 829.605 284 830.625 C281.8203125 832.6328125 281.8203125 832.6328125 279.125 834.75 C277.79855469 835.80574219 277.79855469 835.80574219 276.4453125 836.8828125 C274 838.625 274 838.625 271 839.625 C271 840.285 271 840.945 271 841.625 C269.70581055 842.82666016 269.70581055 842.82666016 267.88671875 844.1640625 C266.88886353 844.90487061 266.88886353 844.90487061 265.87084961 845.66064453 C265.15034424 846.18513184 264.42983887 846.70961914 263.6875 847.25 C262.95345947 847.79124512 262.21941895 848.33249023 261.46313477 848.89013672 C259.98599602 849.97780532 258.50676728 851.06264167 257.02539062 852.14453125 C255.34952464 853.36951333 253.68151477 854.60523509 252.015625 855.84375 C242.20259726 863.09944324 232.05221538 869.94707649 221.52734375 876.12890625 C218.4700407 877.93871625 215.45593355 879.81362854 212.4375 881.6875 C207.35941676 884.81338167 202.25546037 887.8095748 197 890.625 C196.39671875 890.95113281 195.7934375 891.27726563 195.171875 891.61328125 C185.91376625 896.6133667 176.61914469 901.35129472 167 905.625 C166.23816406 905.96917969 165.47632813 906.31335938 164.69140625 906.66796875 C162.46695395 907.66795189 160.23497783 908.64876168 158 909.625 C156.89527344 910.11097656 155.79054688 910.59695313 154.65234375 911.09765625 C153.44707031 911.62230469 152.24179687 912.14695312 151 912.6875 C149.88625 913.17347656 148.7725 913.65945313 147.625 914.16015625 C144.22400973 915.53447883 140.81923532 916.7185608 137.33447266 917.85473633 C135.026359 918.6163028 132.73732722 919.4187224 130.44921875 920.23828125 C110.31700369 927.43527448 89.99702934 933.52168877 69 937.625 C67.85354004 937.85219727 66.70708008 938.07939453 65.52587891 938.31347656 C50.1631681 941.34218732 34.88701948 944.33259256 19.24093628 945.44151306 C17.82767265 945.5572305 16.41598457 945.69707111 15.00866699 945.8707428 C6.58696844 946.89435489 -1.85247082 946.76993592 -10.3203125 946.7578125 C-11.99079401 946.75848752 -13.66127542 946.7594592 -15.33175659 946.76071167 C-18.81639551 946.76217849 -22.30100863 946.76006639 -25.78564453 946.75537109 C-30.23497119 946.74966552 -34.68423762 946.75296452 -39.13356209 946.75894356 C-42.5772242 946.7625691 -46.0208722 946.76140159 -49.46453476 946.75881577 C-51.10466392 946.75815247 -52.7447944 946.75895385 -54.38492203 946.76129532 C-56.68129085 946.76385573 -58.97756402 946.7599343 -61.27392578 946.75439453 C-63.22723312 946.75320114 -63.22723312 946.75320114 -65.22000122 946.75198364 C-69.22157188 946.61755661 -73.03611777 946.17483539 -77 945.625 C-78.70539707 945.42937457 -80.4110935 945.23632618 -82.1171875 945.046875 C-96.27579494 943.41622806 -110.19082846 941.04496093 -124.15478516 938.203125 C-126.85631381 937.65419589 -129.56060987 937.12126877 -132.265625 936.58984375 C-142.5198818 934.53714773 -152.59052043 931.95707832 -162.44921875 928.45703125 C-164.95894828 927.63839053 -167.40825991 927.11251381 -170 926.625 C-178.03965276 924.62661595 -185.67277858 921.48031159 -193.359375 918.44140625 C-196.87166382 917.05577786 -200.40223672 915.7372733 -203.95166016 914.45043945 C-221.28810864 908.13687374 -238.00642289 900.09975149 -254.1484375 891.19140625 C-257.27232874 889.47540572 -260.41693858 887.80091387 -263.5625 886.125 C-273.4166452 880.81445241 -282.72373393 874.88398597 -292 868.625 C-293.68673638 867.49885542 -295.37415715 866.37373469 -297.0625 865.25 C-299.375 863.70833333 -301.6875 862.16666667 -304 860.625 C-304 859.965 -304 859.305 -304 858.625 C-304.58845703 858.50890381 -305.17691406 858.39280762 -305.78320312 858.27319336 C-308.13769374 857.58473823 -309.52253622 856.72752284 -311.46875 855.25390625 C-312.11666504 854.76672119 -312.76458008 854.27953613 -313.43212891 853.77758789 C-314.4557251 852.99049438 -314.4557251 852.99049438 -315.5 852.1875 C-316.20688965 851.6505249 -316.9137793 851.1135498 -317.64208984 850.56030273 C-323.91731553 845.76072562 -329.98435109 840.74451242 -336 835.625 C-336.82516113 834.96927002 -336.82516113 834.96927002 -337.66699219 834.30029297 C-339.14577636 833.11700604 -340.5770015 831.87481833 -342 830.625 C-342 829.965 -342 829.305 -342 828.625 C-342.7425 828.3775 -343.485 828.13 -344.25 827.875 C-347.23023087 826.52034961 -348.89919252 825.1148459 -351 822.625 C-351 821.965 -351 821.305 -351 820.625 C-351.66 820.625 -352.32 820.625 -353 820.625 C-354.02408568 819.6496803 -355.01834406 818.64301357 -356 817.625 C-356.804375 817.00625 -357.60875 816.3875 -358.4375 815.75 C-361 813.625 -361 813.625 -362.875 811.25 C-364.63599663 809.07465122 -366.17977751 807.56522739 -368.3125 805.8125 C-371.60081661 803.06874538 -374.34835379 800.08079252 -377.12109375 796.82421875 C-379.18621102 794.40704407 -381.3056885 792.04602216 -383.4375 789.6875 C-384.19675781 788.84445312 -384.95601563 788.00140625 -385.73828125 787.1328125 C-387.1916498 785.5213054 -388.64719874 783.91176057 -390.10546875 782.3046875 C-394.65676904 777.25159975 -398.87932788 772.03233097 -403 766.625 C-403.79664063 765.60019531 -404.59328125 764.57539062 -405.4140625 763.51953125 C-413.6141108 752.9683656 -421.17606878 742.07388569 -428.375 730.8125 C-431.41878423 726.05572563 -434.50483482 721.33728635 -437.7109375 716.6875 C-439.33491196 714.08914087 -440.63554629 711.367795 -442 708.625 C-443.04858334 706.82515315 -444.11166372 705.03369055 -445.1875 703.25 C-448.0403009 698.39661203 -450.67184529 693.47355259 -453.1875 688.4375 C-453.50807373 687.79699707 -453.82864746 687.15649414 -454.15893555 686.49658203 C-456.21746349 682.33280175 -458.13975739 678.11938672 -460.01098633 673.8684082 C-460.94775171 671.74351629 -461.90042868 669.62667601 -462.859375 667.51171875 C-469.92409089 651.86219592 -476.50532978 636.14015825 -481.38037109 619.66308594 C-482.02988002 617.52671852 -482.72207301 615.4081679 -483.42578125 613.2890625 C-487.73311385 600.24507969 -490.96866881 587.01741238 -494 573.625 C-494.30599121 572.29275391 -494.30599121 572.29275391 -494.61816406 570.93359375 C-496.7451955 561.61928349 -498.45734157 552.39027835 -499.40527344 542.87695312 C-499.73499671 539.12929798 -499.73499671 539.12929798 -501 535.625 C-501.2083014 533.23242698 -501.36743743 530.83546212 -501.5 528.4375 C-501.71162991 524.64705721 -501.95613497 520.93032827 -502.49609375 517.171875 C-506.81177986 486.79479756 -505.9296463 452.0336544 -501.40234375 421.73046875 C-501.06531745 419.12914926 -500.92533479 416.73828236 -501 414.125 C-501 410.625 -501 410.625 -500.0546875 407.36328125 C-499.00161675 403.63073046 -498.51714631 400.16593769 -498.125 396.3125 C-497.26339066 388.56723099 -495.67577988 381.07027651 -493.90234375 373.48828125 C-493.39768559 371.32764523 -492.91299825 369.16121899 -492.50390625 366.98046875 C-492 364.625 -492 364.625 -491.01953125 361.71484375 C-489.97517204 358.54975512 -489.31560778 355.45905523 -488.6875 352.1875 C-487.47607744 346.36900072 -485.85436281 340.83434206 -483.90039062 335.22387695 C-482.48298524 331.14147606 -481.28556317 327.05347046 -480.1875 322.875 C-478.09072333 315.34876503 -475.04376277 308.32178603 -471.9453125 301.16796875 C-470.33263241 297.44086869 -468.85188349 293.6825953 -467.4375 289.875 C-464.68568604 282.601687 -461.37741211 275.62387963 -458 268.625 C-457.60167969 267.79871094 -457.20335937 266.97242188 -456.79296875 266.12109375 C-453.9267888 260.29758324 -450.8891991 254.56033124 -447.875 248.8125 C-447.22664185 247.5745166 -447.22664185 247.5745166 -446.56518555 246.31152344 C-444.47726701 242.3467833 -442.35132923 238.44174689 -440 234.625 C-439.51660156 233.8 -439.03320312 232.975 -438.53515625 232.125 C-434.43030712 225.15655586 -434.43030712 225.15655586 -431.875 222 C-429.82286403 219.58355769 -429.82286403 219.58355769 -428.375 216.1875 C-425.69281705 210.52994001 -421.82706793 205.63436263 -418.14453125 200.6015625 C-416.05559289 197.86951571 -416.05559289 197.86951571 -415 195.625 C-414.34 195.625 -413.68 195.625 -413 195.625 C-412.7628125 194.93019531 -412.525625 194.23539063 -412.28125 193.51953125 C-410.7689473 190.10301815 -408.74761633 187.26743329 -406.5 184.3125 C-406.09652344 183.76271484 -405.69304687 183.21292969 -405.27734375 182.64648438 C-404.23731309 181.26492549 -403.12366546 179.93943702 -402 178.625 C-401.34 178.625 -400.68 178.625 -400 178.625 C-399.62875 177.449375 -399.62875 177.449375 -399.25 176.25 C-397.79075497 173.18558543 -396.94985044 173.00774239 -394 171.625 C-392.93283296 169.82567421 -392.93283296 169.82567421 -392 167.625 C-389.38568882 163.38801292 -386.55288545 160.09329294 -383 156.625 C-381.42083936 154.76120053 -379.86742331 152.88046579 -378.33203125 150.98046875 C-377.89246094 150.53316406 -377.45289063 150.08585938 -377 149.625 C-376.34 149.625 -375.68 149.625 -375 149.625 C-374.67 148.635 -374.34 147.645 -374 146.625 C-373.34 146.625 -372.68 146.625 -372 146.625 C-371.731875 145.985625 -371.46375 145.34625 -371.1875 144.6875 C-370 142.625 -370 142.625 -367 141.625 C-366.67 140.635 -366.34 139.645 -366 138.625 C-365.34 138.625 -364.68 138.625 -364 138.625 C-363.67 137.635 -363.34 136.645 -363 135.625 C-362.34 135.625 -361.68 135.625 -361 135.625 C-360.731875 134.985625 -360.46375 134.34625 -360.1875 133.6875 C-359 131.625 -359 131.625 -356 130.625 C-355.67 129.635 -355.34 128.645 -355 127.625 C-353.50390625 126.1171875 -353.50390625 126.1171875 -351.5625 124.5 C-347.39084259 120.96724507 -343.33814672 117.32152854 -339.296875 113.640625 C-333.58139535 108.625 -333.58139535 108.625 -331 108.625 C-330.67 107.635 -330.34 106.645 -330 105.625 C-327.69140625 103.6015625 -327.69140625 103.6015625 -324.5625 101.25 C-323.9962793 100.82299805 -323.43005859 100.39599609 -322.84667969 99.95605469 C-287.73235088 73.625 -287.73235088 73.625 -282 73.625 C-282 72.965 -282 72.305 -282 71.625 C-279.71444322 70.09226166 -277.44110872 68.68695871 -275.0625 67.3125 C-274.1024707 66.74499023 -274.1024707 66.74499023 -273.12304688 66.16601562 C-258.03849399 57.29539796 -242.62158286 48.98216156 -226.5078125 42.14453125 C-223.54069213 40.85921964 -220.68028375 39.48921889 -217.8125 38 C-212.05766392 35.06034164 -206.05163624 32.87124052 -200 30.625 C-198.6193516 30.10011442 -197.23915972 29.57402679 -195.859375 29.046875 C-194.44799371 28.51021399 -193.03653647 27.97375271 -191.625 27.4375 C-190.97128418 27.18750244 -190.31756836 26.93750488 -189.64404297 26.67993164 C-185.47571427 25.10844943 -181.28510477 23.83397836 -177 22.625 C-175.57065404 22.15394638 -174.14369284 21.67561624 -172.71875 21.19140625 C-167.68802142 19.49566702 -162.60540254 18.01534745 -157.5 16.5625 C-156.61441406 16.30662109 -155.72882813 16.05074219 -154.81640625 15.78710938 C-149.83812582 14.3652657 -144.86677935 13.09985096 -139.79492188 12.05688477 C-137.91287102 11.6754203 -137.91287102 11.6754203 -136 10.625 C-133.66696442 10.28958903 -131.33356473 9.9567095 -129 9.625 C-126.82430157 9.18362065 -124.6601277 8.70081042 -122.49365234 8.21630859 C-113.40166822 6.18649643 -104.39450133 4.78750154 -95.13232422 3.84716797 C-91.39620685 3.45789996 -87.66743808 3.00648163 -83.9375 2.5625 C-83.25929199 2.48306152 -82.58108398 2.40362305 -81.88232422 2.32177734 C-78.66485182 1.94488477 -75.45469022 1.54896305 -72.24609375 1.1015625 C-66.89075015 0.43238842 -61.51490441 0.25921775 -56.125 0.0625 C-54.98514648 0.0207666 -53.84529297 -0.0209668 -52.67089844 -0.06396484 C-35.10693965 -0.65522204 -17.56378601 -0.49684479 0 0 Z M-84.44604492 11.29956055 C-86.46249998 11.56580084 -88.48006676 11.82177203 -90.49804688 12.07617188 C-103.92672497 13.50599036 -103.92672497 13.50599036 -117 16.625 C-118.1240625 16.75003906 -119.248125 16.87507813 -120.40625 17.00390625 C-126.21394273 17.68474409 -131.83104547 19.16371063 -137.5 20.5625 C-138.58925781 20.82740234 -139.67851562 21.09230469 -140.80078125 21.36523438 C-142.92276647 21.88225979 -145.04389377 22.40282156 -147.1640625 22.92724609 C-148.84407436 23.34059612 -150.52578964 23.74727396 -152.2109375 24.13916016 C-157.62357506 25.4148797 -162.77994177 27.23470619 -168 29.125 C-177.48621039 32.56015801 -177.48621039 32.56015801 -182.1953125 33.66015625 C-185.99950482 34.62487443 -189.30603338 35.94286503 -192.875 37.5625 C-196.81856795 39.32135851 -200.68540462 40.91721606 -204.875 42 C-210.30809792 43.49320241 -215.14777083 46.06376117 -220.11669922 48.66943359 C-223.40305292 50.38201731 -226.63456808 51.91008945 -230.125 53.1640625 C-233.62757117 54.42857175 -236.69080956 56.05067566 -239.875 58 C-243.56964718 60.2140034 -247.25082412 62.30523531 -251.125 64.1875 C-255.39186944 66.26956791 -259.43743634 68.61122576 -263.48046875 71.09765625 C-265.42360791 72.27559022 -267.39076639 73.41396144 -269.3671875 74.53515625 C-272.96320497 76.58122472 -276.45999603 78.75943774 -279.9375 81 C-280.54795166 81.3921167 -281.15840332 81.7842334 -281.78735352 82.18823242 C-285.74461123 84.75227465 -289.5340463 87.46201769 -293.26171875 90.3515625 C-296.02853302 92.37848711 -299.00628612 93.9554288 -302 95.625 C-304.35959458 97.11986846 -304.35959458 97.11986846 -306 98.625 C-306 99.285 -306 99.945 -306 100.625 C-306.886875 100.851875 -307.77375 101.07875 -308.6875 101.3125 C-312.56841521 102.85022112 -314.11644351 104.61037276 -317 107.625 C-318.48427611 108.85259678 -319.98644683 110.05868718 -321.5 111.25 C-336.50362143 123.12879038 -350.44197959 136.00417235 -364 149.5 C-365.04075684 150.53374756 -365.04075684 150.53374756 -366.10253906 151.58837891 C-370.60457408 156.10454392 -374.85201585 160.78323364 -379 165.625 C-380.02059589 166.80098736 -381.04142051 167.97677626 -382.0625 169.15234375 C-392.28039834 179.05684664 -392.28039834 179.05684664 -398 190.625 C-398.99 190.955 -399.98 191.285 -401 191.625 C-402.03404423 193.36994965 -403.06340162 195.11924381 -404.015625 196.91015625 C-405.1014598 198.80174942 -406.42617053 200.129862 -408 201.625 C-408 202.285 -408 202.945 -408 203.625 C-408.66 203.625 -409.32 203.625 -410 203.625 C-410.57234375 204.64207031 -411.1446875 205.65914062 -411.734375 206.70703125 C-413.79650864 210.31395305 -415.99040566 213.82648275 -418.25 217.3125 C-418.63841064 217.91553955 -419.02682129 218.5185791 -419.42700195 219.13989258 C-421.96369085 223.06575743 -424.56339186 226.94433292 -427.1875 230.8125 C-430.32612498 235.48292402 -433.0830113 240.25761775 -435.67578125 245.25 C-436.95614657 247.54634843 -438.42064601 249.52940288 -440 251.625 C-440.67302503 253.20660881 -441.34226209 254.7899822 -441.98828125 256.3828125 C-443.3159701 259.32525806 -444.87811142 262.111316 -446.4375 264.9375 C-448.98436645 269.60942482 -451.16840626 274.22989799 -453.0546875 279.19921875 C-454.0305222 281.70332349 -455.11909727 284.12469312 -456.25 286.5625 C-461.41646433 297.83914815 -466.51290104 309.15038833 -469.9296875 321.09375 C-471.62352564 326.68217949 -473.63292969 332.16071924 -475.62719727 337.64819336 C-475.91908936 338.46425049 -476.21098145 339.28030762 -476.51171875 340.12109375 C-476.77428467 340.84482178 -477.03685059 341.5685498 -477.30737305 342.31420898 C-478.13028811 345.0596764 -478.53858073 347.79726479 -479 350.625 C-479.48125701 352.54720881 -479.99013328 354.46266989 -480.5234375 356.37109375 C-480.8210498 357.44866943 -481.11866211 358.52624512 -481.42529297 359.63647461 C-481.73869629 360.76706299 -482.05209961 361.89765137 -482.375 363.0625 C-486.93779536 379.65842318 -486.93779536 379.65842318 -489.4453125 396.65625 C-490.12447504 404.57420932 -491.35744915 412.41546806 -492.5390625 420.27148438 C-494.91977405 436.82098292 -495.16530546 453.32517839 -495.13037109 470.01977539 C-495.12501226 473.05555221 -495.13035291 476.09118075 -495.13671875 479.12695312 C-495.14467199 496.36030413 -494.62212535 513.30925829 -492.0625 530.375 C-491.69606257 532.89575315 -491.33016993 535.41658556 -490.96484375 537.9375 C-490.7932373 539.10796875 -490.62163086 540.2784375 -490.44482422 541.484375 C-490.09311752 543.96755553 -489.77376836 546.44454745 -489.50390625 548.9375 C-488.27036242 560.12841307 -485.40375197 570.93296918 -482.68554688 581.83691406 C-481.8447204 585.25651461 -481.07296834 588.68671231 -480.3125 592.125 C-479.36393789 596.27220179 -478.21675204 600.26055117 -476.80859375 604.2734375 C-475.84376671 607.07935963 -474.98520881 609.91027452 -474.125 612.75 C-470.44264348 624.76685046 -466.45432126 636.56491706 -461.5 648.125 C-460.31851974 650.88178728 -459.21139668 653.64328774 -458.125 656.4375 C-456.42299296 660.72499865 -454.47195643 664.81911077 -452.34375 668.91015625 C-451.20493609 671.21095761 -450.15987302 673.51951803 -449.1328125 675.87109375 C-447.0638174 680.55826763 -444.77092211 685.0975663 -442.375 689.625 C-441.94477539 690.43952637 -441.51455078 691.25405273 -441.07128906 692.09326172 C-435.25942711 703.00158214 -429.17462492 713.84125578 -422.05859375 723.9609375 C-421 725.625 -421 725.625 -420 728.625 C-419.34 728.625 -418.68 728.625 -418 728.625 C-417.59394531 729.46804688 -417.59394531 729.46804688 -417.1796875 730.328125 C-410.09138211 744.12919642 -399.73310451 756.52608137 -389.83984375 768.390625 C-388 770.625 -388 770.625 -386.37890625 772.921875 C-385.69634766 773.76492188 -385.69634766 773.76492188 -385 774.625 C-384.34 774.625 -383.68 774.625 -383 774.625 C-382.7834375 775.15996094 -382.566875 775.69492187 -382.34375 776.24609375 C-380.51682778 779.48038338 -378.04116187 782.01172878 -375.5 784.6875 C-372.78869481 787.56344517 -370.20153517 790.32269724 -368 793.625 C-367.34 793.625 -366.68 793.625 -366 793.625 C-365.67 794.615 -365.34 795.605 -365 796.625 C-364.34 796.625 -363.68 796.625 -363 796.625 C-363 797.285 -363 797.945 -363 798.625 C-362.34 798.625 -361.68 798.625 -361 798.625 C-360.67 799.615 -360.34 800.605 -360 801.625 C-359.34 801.625 -358.68 801.625 -358 801.625 C-357.67 802.615 -357.34 803.605 -357 804.625 C-356.34 804.625 -355.68 804.625 -355 804.625 C-354.67 805.615 -354.34 806.605 -354 807.625 C-353.34 807.625 -352.68 807.625 -352 807.625 C-352 808.285 -352 808.945 -352 809.625 C-351.34 809.625 -350.68 809.625 -350 809.625 C-349.67 810.615 -349.34 811.605 -349 812.625 C-347.47930027 814.20516767 -347.47930027 814.20516767 -345.5625 815.75 C-342.3350736 818.48178592 -339.18119333 821.26944642 -336.0625 824.125 C-332.2551238 827.56035776 -328.35232941 830.77712989 -324.2734375 833.8828125 C-321.85589695 835.73542948 -319.49087086 837.64442804 -317.125 839.5625 C-311.87956546 843.76859147 -306.47401035 847.72289161 -301 851.625 C-300.19949219 852.19992187 -299.39898437 852.77484375 -298.57421875 853.3671875 C-292.71907303 857.52616171 -286.71360068 861.43393825 -280.65625 865.2890625 C-278.20612064 866.84859345 -275.77006112 868.42711182 -273.34375 870.0234375 C-267.69441967 873.72978343 -262.07665117 877.27124004 -255.96484375 880.1796875 C-250.89507173 882.65111786 -245.93352508 885.33159249 -240.95043945 887.97241211 C-230.80252408 893.34613163 -230.80252408 893.34613163 -220.3125 898 C-216.0183559 899.75645041 -211.81552129 901.63437478 -207.625 903.625 C-201.9510797 906.27509451 -196.19481815 908.42869253 -190.27734375 910.46875 C-187.42670587 911.47445776 -184.6583018 912.57433332 -181.875 913.75 C-177.52022402 915.51715547 -173.16377758 916.65329845 -168.59375 917.7265625 C-165.91875012 918.39531247 -163.29623721 919.11169391 -160.65625 919.8984375 C-149.83464376 923.12305754 -138.94988643 925.89091648 -127.9375 928.375 C-127.28341156 928.52352417 -126.62932312 928.67204834 -125.95541382 928.82507324 C-103.79046312 933.839664 -81.63363321 936.0799325 -59 937.625 C-58.11844238 937.68574707 -57.23688477 937.74649414 -56.32861328 937.80908203 C-14.31273206 940.61460729 29.04478874 938.03932257 69.98071289 928.04858398 C74.36334838 926.98236924 78.74573846 926.10861901 83.1875 925.3125 C92.57952885 923.4966405 101.56773826 920.38363783 110.63647461 917.38452148 C112.60894224 916.75066684 114.60152256 916.17984281 116.59765625 915.625 C120.81642913 914.3850392 124.85380838 912.81063819 128.9375 911.1875 C130.46726027 910.58415943 131.99720701 909.98129142 133.52734375 909.37890625 C134.27226074 909.08516113 135.01717773 908.79141602 135.78466797 908.48876953 C137.9347905 907.65042553 140.09181554 906.83426055 142.25390625 906.02734375 C146.98666947 904.25564198 151.60353501 902.37609307 156.1875 900.25 C159.59232872 898.6851317 162.98628109 897.23591452 166.5 895.9375 C175.00313277 892.58737332 182.97816642 887.97366182 191 883.625 C191.81758789 883.1825293 192.63517578 882.74005859 193.47753906 882.28417969 C205.01678981 876.02361814 205.01678981 876.02361814 216.05078125 868.92578125 C218.22063542 867.47776234 220.45502279 866.23921281 222.75 865 C226.1425346 863.1677949 229.01833268 861.08049073 232 858.625 C232.99 858.295 233.98 857.965 235 857.625 C235 856.965 235 856.305 235 855.625 C235.72574219 855.356875 236.45148437 855.08875 237.19921875 854.8125 C239.96864024 853.63829619 242.30919434 852.2855676 244.8125 850.625 C245.60269531 850.109375 246.39289062 849.59375 247.20703125 849.0625 C247.79871094 848.588125 248.39039063 848.11375 249 847.625 C249 846.965 249 846.305 249 845.625 C249.82951172 845.24214844 249.82951172 845.24214844 250.67578125 844.8515625 C258.9937691 840.46190168 266.10651912 833.9366458 273 827.625 C276.50747529 824.51076787 280.00765495 821.40964492 283.6875 818.5 C286.10685001 816.60474334 286.10685001 816.60474334 288.5 814.125 C291 811.625 291 811.625 293.375 809.8125 C296.37355052 807.3137079 298.76910994 804.54205475 301.30078125 801.58203125 C304.11625906 798.33937749 307.19519324 795.38630369 310.3125 792.4375 C312.22713951 790.79377727 312.22713951 790.79377727 312 788.625 C312.99 788.625 313.98 788.625 315 788.625 C316.44963295 787.1303716 316.44963295 787.1303716 317.75 785.125 C320.43147345 781.35626243 323.31791708 777.90327952 326.39453125 774.453125 C327.75152971 772.90792967 329.04045004 771.30334725 330.3125 769.6875 C332 767.625 332 767.625 334 766.625 C334.6496875 765.26375 334.6496875 765.26375 335.3125 763.875 C337 760.625 337 760.625 339.2734375 758.37109375 C342.34881504 755.27368629 344.80361677 751.99453888 347.3125 748.4375 C347.76689453 747.80908203 348.22128906 747.18066406 348.68945312 746.53320312 C351.16829471 743.38893327 351.16829471 743.38893327 352 739.625 C352.66 739.625 353.32 739.625 354 739.625 C354.350625 738.820625 354.70125 738.01625 355.0625 737.1875 C356.49541208 734.29463976 358.27838606 731.93964016 360.3125 729.4375 C363.66915491 725.24522214 366.17517745 720.86841153 368.6640625 716.12109375 C370.25414264 713.15015455 372.11770795 710.41807853 374 707.625 C377.49598812 701.56965564 380.75158041 695.37802721 384 689.1875 C384.43715332 688.35492676 384.87430664 687.52235352 385.32470703 686.66455078 C389.39496777 678.89626293 393.40885141 671.13760546 396.90234375 663.08984375 C397.71899419 661.25601305 398.57111071 659.43789454 399.44140625 657.62890625 C402.54296025 651.1537321 405.04140238 644.81723133 406.9453125 637.890625 C407.77559049 635.31983833 408.68427453 633.0893737 409.82421875 630.66015625 C412.73613088 624.2590629 414.64996023 617.52994868 416.6875 610.8125 C417.09391065 609.49008356 417.50080859 608.16781679 417.90820312 606.84570312 C420.10742328 599.77796405 420.10742328 599.77796405 422 592.625 C422.23380371 591.64490967 422.46760742 590.66481934 422.70849609 589.6550293 C423.44140414 586.54708642 424.17252451 583.43873281 424.90136719 580.32983398 C425.21255318 579.00440621 425.52469838 577.67920319 425.83789062 576.35424805 C430.33633833 560.0182794 430.33633833 560.0182794 432.0625 543.375 C432.0096786 540.20571623 432.27083413 537.88719692 432.89453125 534.828125 C440.63597757 493.51772574 440.78374361 444.72611742 432 403.625 C431.855625 402.531875 431.71125 401.43875 431.5625 400.3125 C431.06868706 397.07528187 430.38420124 394.05321533 429.5 390.91015625 C429 388.625 429 388.625 428.55859375 384.86328125 C428.06608173 380.71725171 427.1331442 376.77987511 426.0625 372.75 C424.3036319 365.93547502 422.81283717 359.11358755 421.55859375 352.1875 C420.96712125 349.47417162 420.15590142 346.9373865 419.25 344.3125 C417.607534 339.47997368 416.06216869 334.62788829 414.5625 329.75 C410.91510087 316.65887525 410.91510087 316.65887525 405 304.625 C404.56565412 303.19866416 404.1746933 301.75884238 403.8125 300.3125 C402.17804109 294.6002329 399.57299741 289.54200627 396.81640625 284.3125 C395.39842962 281.55042774 394.23691614 278.74697065 393.1171875 275.8515625 C390.96435456 270.36331803 388.3268541 265.20170069 385.5625 260 C384.86543945 258.66582031 384.86543945 258.66582031 384.15429688 257.3046875 C381.63179287 252.5200216 378.97379402 247.88599348 376.06469727 243.32666016 C374.11703766 240.21379901 372.59308315 236.92917246 371 233.625 C370.34 233.625 369.68 233.625 369 233.625 C368.88785156 233.05910156 368.77570312 232.49320313 368.66015625 231.91015625 C366.46579749 224.314299 360.59778848 217.56429901 355.95703125 211.30859375 C353.62624354 208.11248365 351.45975142 204.8287386 349.32421875 201.5 C348.05720953 199.59105712 348.05720953 199.59105712 346.41796875 198.0546875 C345 196.625 345 196.625 343.625 193.75 C341.84189234 190.32094681 339.75349533 188.31133691 337 185.625 C336.278125 184.531875 335.55625 183.43875 334.8125 182.3125 C333.9153125 180.9821875 333.9153125 180.9821875 333 179.625 C332.34 179.625 331.68 179.625 331 179.625 C330.72978027 179.03710693 330.45956055 178.44921387 330.18115234 177.84350586 C329.0074271 175.63895 327.75118114 173.99563498 326.1015625 172.12890625 C325.25851562 171.16694336 325.25851562 171.16694336 324.3984375 170.18554688 C323.81320312 169.52619141 323.22796875 168.86683594 322.625 168.1875 C321.47048172 166.87707021 320.3168168 165.56588803 319.1640625 164.25390625 C318.61596924 163.6314502 318.06787598 163.00899414 317.50317383 162.36767578 C316.22977186 160.8913816 315.00898796 159.36995278 313.80078125 157.83984375 C312.165165 155.82814221 310.56696591 154.25449654 308.5625 152.625 C304.75839024 149.44678009 301.20559579 146.20474621 298.1875 142.25 C295.6731393 139.23276716 292.88304613 136.81423815 289.8984375 134.2734375 C288 132.625 288 132.625 285.625 130.1875 C284.13544499 128.39396376 284.13544499 128.39396376 282 128.625 C281.67 127.635 281.34 126.645 281 125.625 C279.24710944 123.99590909 277.42426823 122.44095653 275.5625 120.9375 C274.57378906 120.12925781 273.58507812 119.32101563 272.56640625 118.48828125 C270.25884089 116.42916254 270.25884089 116.42916254 268 116.625 C267.814375 116.068125 267.62875 115.51125 267.4375 114.9375 C265.35889174 111.59365193 262.39186398 109.57692172 259 107.625 C258.34 107.625 257.68 107.625 257 107.625 C257 106.965 257 106.305 257 105.625 C254.88882475 103.90963002 254.88882475 103.90963002 252.25 102.1875 C247.08353081 98.69031398 247.08353081 98.69031398 244.796875 96.90234375 C243.09575456 95.43186899 243.09575456 95.43186899 241 95.625 C241 94.965 241 94.305 241 93.625 C238.79881339 92.05527693 236.60780103 90.60687197 234.3125 89.1875 C233.37374023 88.59485352 233.37374023 88.59485352 232.41601562 87.99023438 C229.78182224 86.33248545 227.13347284 84.70467302 224.4609375 83.109375 C221.36785555 81.24370652 218.34280504 79.27756408 215.3125 77.3125 C201.19611401 68.2223891 186.68899104 60.03541762 171.359375 53.15234375 C168.89089319 52.03004562 166.45130456 50.88080268 164.015625 49.69140625 C156.08432319 45.83672754 148.17614136 42.46530117 139.82006836 39.63720703 C136.22152765 38.41877369 132.7419404 37.13548174 129.3125 35.5 C124.58947569 33.29289441 119.64391957 32.04997334 114.625 30.68359375 C111.26045564 29.70105978 108.07437137 28.52620717 104.8125 27.25 C94.74440244 23.56101273 84.18426609 21.62309075 73.71118164 19.42651367 C71.08142688 18.85855861 68.46600118 18.26809696 65.84936523 17.64575195 C55.34602989 15.17111076 44.88526332 13.4894111 34.16870117 12.24194336 C31.56599991 11.93790884 28.96570256 11.61744351 26.36523438 11.29492188 C8.65815636 9.1447901 -8.93253555 8.45323347 -26.76123047 8.49462891 C-29.49842868 8.49999692 -32.23546289 8.49463658 -34.97265625 8.48828125 C-51.56720163 8.47982076 -67.98620466 9.12554307 -84.44604492 11.29956055 Z " fill="#F05129" transform="translate(565,78.375)"/>
<path d="M0 0 C0.66 0 1.32 0 2 0 C9.6937847 15.3875694 -1.35452846 48.93347482 -5.44189453 64.82666016 C-5.90088097 66.61401679 -6.34163961 68.40604442 -6.77734375 70.19921875 C-10.73789871 85.87739194 -17.68578938 100.65169747 -25 115 C-25.66 115 -26.32 115 -27 115 C-27.14695312 115.556875 -27.29390625 116.11375 -27.4453125 116.6875 C-28.94835873 121.80131248 -30.83819915 125.59920145 -34.1796875 129.73828125 C-37.28408434 133.59546101 -40.13378217 137.65322448 -43.046875 141.65625 C-44.01367188 142.81640625 -44.01367188 142.81640625 -45 144 C-45.66 144 -46.32 144 -47 144 C-47.0825 144.556875 -47.165 145.11375 -47.25 145.6875 C-48.88124088 150.71715937 -53.19213015 154.48504321 -57 158 C-57.99 158.33 -58.98 158.66 -60 159 C-60.33 159.99 -60.66 160.98 -61 162 C-61.804375 162.309375 -62.60875 162.61875 -63.4375 162.9375 C-66.10493014 163.70498446 -66.10493014 163.70498446 -66.8203125 165.765625 C-71.21419263 174.08780856 -83.2265915 180.27322999 -91 185 C-92.81332559 186.18623893 -94.62582098 187.37374787 -96.4375 188.5625 C-102.08640376 192.15945154 -107.97817713 195.08786695 -114 198 C-114.71929688 198.3697998 -115.43859375 198.73959961 -116.1796875 199.12060547 C-122.60986687 202.41389311 -129.1590341 205.21844604 -135.875 207.875 C-137.50441528 208.52299561 -137.50441528 208.52299561 -139.16674805 209.18408203 C-149.01878318 213.0689653 -158.96740433 216.61394082 -169 220 C-170.22976563 220.4228125 -171.45953125 220.845625 -172.7265625 221.28125 C-180.29313893 223.85867263 -180.29313893 223.85867263 -183.30908203 224.46166992 C-186.05199408 225.01040165 -188.7514881 225.66039079 -191.46484375 226.33984375 C-202.61540371 229.10006292 -213.56799165 231.75479863 -225 233 C-226.42602292 233.1830226 -227.85178958 233.36804893 -229.27734375 233.5546875 C-253.96077662 236.67974113 -253.96077662 236.67974113 -262 234 C-263.46428687 233.85526888 -264.9328945 233.75195239 -266.40234375 233.67578125 C-296.74169423 231.7592609 -326.12804241 220.2171768 -349 200 C-349.94875 199.17242188 -350.8975 198.34484375 -351.875 197.4921875 C-359.83953619 190.41500453 -366.43167227 182.76082786 -373.03515625 174.43359375 C-375.33198654 171.58881189 -377.7339723 168.85536455 -380.16015625 166.12109375 C-382.28913486 163.66666618 -384.3310905 161.15066287 -386.375 158.625 C-390.74869032 153.25458433 -395.29505194 148.08169436 -400 143 C-400.53753906 142.39671875 -401.07507813 141.7934375 -401.62890625 141.171875 C-411.45279434 130.63396998 -424.13530387 124.03309887 -437 118 C-437.63147949 117.66299072 -438.26295898 117.32598145 -438.91357422 116.97875977 C-449.35931948 112.07857339 -463.56749892 110.22137623 -475 110 C-476.12792969 109.96132813 -477.25585938 109.92265625 -478.41796875 109.8828125 C-489.94664089 109.66414432 -501.71784648 110.52506118 -513 113 C-513 109 -513 109 -511.6875 107.25 C-510 106 -510 106 -507 106 C-507 105.34 -507 104.68 -507 104 C-486.14259549 91.04848379 -462.52121132 85.72010915 -438.03125 91.17749023 C-434.97522284 91.9951184 -431.99015216 92.96926496 -429 94 C-427.31583984 94.50853516 -427.31583984 94.50853516 -425.59765625 95.02734375 C-413.22495986 99.00984969 -400.44907184 105.21343204 -390 113 C-390 113.66 -390 114.32 -390 115 C-389.41734375 115.11472656 -388.8346875 115.22945312 -388.234375 115.34765625 C-385.83476865 116.04824062 -384.27139067 116.98192595 -382.25 118.4375 C-381.63640625 118.86933594 -381.0228125 119.30117188 -380.390625 119.74609375 C-379.93171875 120.15988281 -379.4728125 120.57367187 -379 121 C-379 121.66 -379 122.32 -379 123 C-378.26007813 123.25394531 -377.52015625 123.50789062 -376.7578125 123.76953125 C-373.83538307 125.07344806 -372.16308507 126.47336445 -369.875 128.6875 C-365.61219021 132.63401362 -361.08420836 135.60876599 -356.08984375 138.5546875 C-355.40019531 139.03164063 -354.71054687 139.50859375 -354 140 C-354 140.66 -354 141.32 -354 142 C-353.01 142.37125 -353.01 142.37125 -352 142.75 C-348.23639093 144.31817045 -344.6288576 146.14505046 -341 148 C-341 148.66 -341 149.32 -341 150 C-339.96939453 150.14501953 -339.96939453 150.14501953 -338.91796875 150.29296875 C-335.37817646 151.15066943 -332.53928317 152.62503333 -329.3125 154.3125 C-298.18332335 170.2945606 -265.52308514 174.53470522 -231 174 C-229.78957031 173.98912354 -229.78957031 173.98912354 -228.5546875 173.97802734 C-214.64438425 173.80647469 -201.4971619 171.25266985 -188 168 C-187.02498535 167.76619629 -186.0499707 167.53239258 -185.04541016 167.29150391 C-174.00537588 164.59142483 -163.62684933 161.33313789 -153.328125 156.515625 C-150.68466143 155.31179417 -148.21490165 154.36486048 -145.4375 153.5625 C-139.1650495 151.62789362 -133.5019203 148.09816097 -127.77001953 144.95605469 C-124.67195255 143.2826712 -121.51075067 141.74072677 -118.34375 140.203125 C-111.23443541 136.55367684 -104.712486 132.19684422 -98.125 127.6875 C-97.18269531 127.04876953 -96.24039062 126.41003906 -95.26953125 125.75195312 C-87.35352881 120.34870665 -79.66433834 114.92635506 -73 108 C-71.15207897 106.32641114 -69.29753603 104.66011379 -67.4375 103 C-36.21664943 74.68965033 -16.30362738 38.28333245 0 0 Z " fill="#F0542C" transform="translate(888,673)"/>
<path d="M0 0 C2.08326131 -0.02709444 4.16662441 -0.04643873 6.25 -0.0625 C7.41015625 -0.07410156 8.5703125 -0.08570313 9.765625 -0.09765625 C12.40977128 -0.01782092 14.49826091 0.21356222 17 1 C17 3.31 17 5.62 17 8 C15.68 8 14.36 8 13 8 C13.144375 8.58007812 13.28875 9.16015625 13.4375 9.7578125 C14.50889428 14.26659675 15.23945936 18.33054247 15 23 C15.66 23 16.32 23 17 23 C17.14695312 22.07380859 17.14695312 22.07380859 17.296875 21.12890625 C18.39983971 14.88194233 20.23740752 9.7093578 23 4 C26.3 4.33 29.6 4.66 33 5 C34.32 11.6 35.64 18.2 37 25 C38.32 20.38 39.64 15.76 41 11 C40.01 10.01 39.02 9.02 38 8 C38.33 6.35 38.66 4.7 39 3 C44.28 3.33 49.56 3.66 55 4 C55 6.31 55 8.62 55 11 C53.68 11 52.36 11 51 11 C50.86787109 11.7216333 50.73574219 12.4432666 50.59960938 13.18676758 C50.02556878 15.88003705 49.28036284 18.40213188 48.40625 21.01171875 C48.09816406 21.93404297 47.79007813 22.85636719 47.47265625 23.80664062 C46.99119141 25.23266602 46.99119141 25.23266602 46.5 26.6875 C46.17902344 27.64978516 45.85804688 28.61207031 45.52734375 29.60351562 C43.14060834 36.71878332 43.14060834 36.71878332 42 39 C40.04233719 39.08082094 38.08373272 39.13910778 36.125 39.1875 C34.48917969 39.23970703 34.48917969 39.23970703 32.8203125 39.29296875 C31.88960937 39.19628906 30.95890625 39.09960938 30 39 C26.62505579 33.93758369 26.76654954 27.9681357 26 22 C24.02 27.28 22.04 32.56 20 38 C18.576875 38.020625 17.15375 38.04125 15.6875 38.0625 C14.88699219 38.07410156 14.08648438 38.08570313 13.26171875 38.09765625 C11 38 11 38 8 37 C7.16680795 34.29961856 6.53329701 31.76125417 6 29 C5.8565918 28.28408691 5.71318359 27.56817383 5.56542969 26.83056641 C5.14565535 24.66140462 4.75618438 22.48875162 4.375 20.3125 C4.2409375 19.57966797 4.106875 18.84683594 3.96875 18.09179688 C3.30822019 14.35441136 2.83522025 10.79742427 3 7 C1.68 6.67 0.36 6.34 -1 6 C-0.67 4.02 -0.34 2.04 0 0 Z " fill="#EF532B" transform="translate(539,142)"/>
<path d="M0 0 C3.33358639 1.2000911 4.88794281 2.78450152 6.75 5.75 C7.17796875 6.40484375 7.6059375 7.0596875 8.046875 7.734375 C9.34427868 10.81836736 9.43273021 12.65836117 9 16 C7.73443986 18.93702731 6.14803105 21.63817966 4.5 24.375 C4.07074219 25.11105469 3.64148438 25.84710938 3.19921875 26.60546875 C2.14436224 28.41044544 1.07373119 30.20618718 0 32 C1.48976459 31.29273802 2.96662996 30.55826094 4.4375 29.8125 C5.26121094 29.40644531 6.08492187 29.00039063 6.93359375 28.58203125 C9.24690712 27.13366813 9.24690712 27.13366813 9.78515625 24.32421875 C9.85605469 23.55722656 9.92695312 22.79023438 10 22 C11.65 21.67 13.3 21.34 15 21 C16.19982444 22.92989218 17.38452818 24.86919228 18.5625 26.8125 C19.22378906 27.89144531 19.88507812 28.97039062 20.56640625 30.08203125 C22 33 22 33 21 36 C18.43418597 36.58647178 16.22064207 37.01211927 13.58203125 36.8671875 C10.49687564 37.02587932 9.33406448 37.80173927 6.875 39.625 C-6.42857143 49 -6.42857143 49 -12 49 C-14.52726713 46.05152168 -15.97491147 44.128984 -16.0625 40.1875 C-14.8680691 36.60420731 -13.24405983 33.57794691 -11.34375 30.32421875 C-9.39851725 26.95964467 -7.71226456 23.48794633 -6 20 C-7.65695607 20.87508932 -9.3003344 21.77592252 -10.9375 22.6875 C-12.31228516 23.43580078 -12.31228516 23.43580078 -13.71484375 24.19921875 C-16.23011783 25.82742443 -16.23011783 25.82742443 -16.81640625 28.70703125 C-16.87699219 29.46371094 -16.93757812 30.22039062 -17 31 C-18.65 31.33 -20.3 31.66 -22 32 C-23.17773651 30.25743068 -24.34183179 28.50563593 -25.5 26.75 C-26.1496875 25.77546875 -26.799375 24.8009375 -27.46875 23.796875 C-29 21 -29 21 -29 17 C-23.47327975 14.86467627 -23.47327975 14.86467627 -21.0378418 15.56103516 C-17.12901531 16.4030227 -14.00720076 13.41392902 -10.8125 11.375 C-9.70745117 10.71564453 -9.70745117 10.71564453 -8.58007812 10.04296875 C-4.30967938 7.49866751 -4.30967938 7.49866751 -2.13671875 3.2265625 C-2.06904297 2.12441406 -2.06904297 2.12441406 -2 1 C-1.34 0.67 -0.68 0.34 0 0 Z " fill="#EF532A" transform="translate(861,321)"/>
<path d="M0 0 C0.4839655 1.54016694 0.96192387 3.08222194 1.4375 4.625 C1.70433594 5.48351562 1.97117187 6.34203125 2.24609375 7.2265625 C2.49488281 8.14179688 2.74367188 9.05703125 3 10 C3.3196875 10.94875 3.639375 11.8975 3.96875 12.875 C4.01707272 17.70727194 1.25654394 19.97889113 -1.9375 23.375 C-2.51435547 24.01566406 -3.09121094 24.65632813 -3.68554688 25.31640625 C-5.10811708 26.89181457 -6.55206011 28.44787648 -8 30 C-4.95799954 30 -2.00467194 29.44513658 1 29 C1 27.35 1 25.7 1 24 C3.31 23.67 5.62 23.34 8 23 C8.6700834 25.12392506 9.33596797 27.24917524 10 29.375 C10.37125 30.55835938 10.7425 31.74171875 11.125 32.9609375 C12 36 12 36 12 38 C6.25 39.125 6.25 39.125 4 38 C1.61371771 38.65324478 -0.66983319 39.37108703 -3 40.1875 C-3.67192383 40.4158252 -4.34384766 40.64415039 -5.03613281 40.87939453 C-9.79618801 42.5172997 -14.44719946 44.34892221 -19.046875 46.3984375 C-21 47 -21 47 -24 46 C-25.58605731 42.32702518 -26.69577971 38.97588403 -26 35 C-24.51909552 32.6823019 -22.94793018 30.99430947 -21 29 C-20.34 29 -19.68 29 -19 29 C-18.731875 28.2575 -18.46375 27.515 -18.1875 26.75 C-17.05770579 24.13363446 -15.79106798 22.19812889 -14 20 C-17.12290635 20.48578543 -19.99580359 20.9986012 -23 22 C-23.33 23.65 -23.66 25.3 -24 27 C-25.98 27.33 -27.96 27.66 -30 28 C-30.84161854 25.91999989 -31.67300763 23.83585854 -32.5 21.75 C-32.9640625 20.58984375 -33.428125 19.4296875 -33.90625 18.234375 C-35 15 -35 15 -35 11 C-33.02 10.67 -31.04 10.34 -29 10 C-28.67 10.99 -28.34 11.98 -28 13 C-26.6696875 12.38125 -26.6696875 12.38125 -25.3125 11.75 C-19.71803185 9.33420693 -13.83418285 7.72832184 -8 6 C-7.67 4.35 -7.34 2.7 -7 1 C-4 0 -4 0 0 0 Z " fill="#F0532A" transform="translate(899,387)"/>
<path d="M0 0 C0.495 2.475 0.495 2.475 1 5 C0.01 5.33 -0.98 5.66 -2 6 C-1.75765625 6.77190674 -1.5153125 7.54381348 -1.265625 8.33911133 C-0.17269046 11.82888283 0.91372797 15.3206492 2 18.8125 C2.3815625 20.02744141 2.763125 21.24238281 3.15625 22.49414062 C3.69765625 24.23920898 3.69765625 24.23920898 4.25 26.01953125 C4.58515625 27.09307861 4.9203125 28.16662598 5.265625 29.27270508 C6 32 6 32 6 35 C-2.54834567 37.46308265 -2.54834567 37.46308265 -7 36 C-9.24609375 34.109375 -9.24609375 34.109375 -11.4375 31.75 C-14.80412304 28.22011263 -18.18455528 25.03278939 -22 22 C-20.515 28.435 -20.515 28.435 -19 35 C-17.02 34.505 -17.02 34.505 -15 34 C-14.34 35.98 -13.68 37.96 -13 40 C-18.5626148 42.66038099 -23.93267948 43.96232949 -30 45 C-30.33 42.69 -30.66 40.38 -31 38 C-29.515 37.505 -29.515 37.505 -28 37 C-28.26554687 36.2265625 -28.53109375 35.453125 -28.8046875 34.65625 C-30.78762974 28.80874148 -32.6114881 23.01688489 -34 17 C-35.32 17 -36.64 17 -38 17 C-38.66 14.69 -39.32 12.38 -40 10 C-34.94268206 7.52514229 -29.73462188 5.17793849 -24 6 C-20.88679084 7.91182232 -18.53050281 10.38753758 -16 13 C-14.67911871 14.16016569 -13.34656738 15.30724866 -12 16.4375 C-11.01 17.283125 -10.02 18.12875 -9 19 C-9.66 15.7 -10.32 12.4 -11 9 C-12.32 9 -13.64 9 -15 9 C-15.33 7.02 -15.66 5.04 -16 3 C-14.27709395 2.29695778 -12.54632534 1.61316509 -10.8125 0.9375 C-9.84957031 0.55464844 -8.88664062 0.17179688 -7.89453125 -0.22265625 C-4.79065325 -1.05622133 -3.05080883 -0.88679818 0 0 Z " fill="#EF542A" transform="translate(442,154)"/>
<path d="M0 0 C2.31 0 4.62 0 7 0 C9.49402629 4.98805257 9.37835318 10.71914892 8 16 C4.31260116 20.22454501 -1.03632437 22.59677243 -6 25 C-7.98 25.99 -7.98 25.99 -10 27 C-6.37 27.33 -2.74 27.66 1 28 C1 27.01 1 26.02 1 25 C3.31 25 5.62 25 8 25 C8 30.28 8 35.56 8 41 C5.69 41 3.38 41 1 41 C1 39.68 1 38.36 1 37 C-8.9 37.33 -18.8 37.66 -29 38 C-29 34.37 -29 30.74 -29 27 C-26.92578125 25.10546875 -26.92578125 25.10546875 -24 24 C-22.87069988 23.27428693 -21.76073033 22.51792883 -20.66796875 21.73828125 C-20.09755859 21.34189453 -19.52714844 20.94550781 -18.93945312 20.53710938 C-18.07223633 19.93092773 -18.07223633 19.93092773 -17.1875 19.3125 C-16.59001953 18.89677734 -15.99253906 18.48105469 -15.37695312 18.05273438 C-13.9169717 17.0365873 -12.45834569 16.01849325 -11 15 C-14.63 14.67 -18.26 14.34 -22 14 C-22 15.32 -22 16.64 -22 18 C-24.31 18 -26.62 18 -29 18 C-29.33 12.39 -29.66 6.78 -30 1 C-27.36 1 -24.72 1 -22 1 C-22 2.32 -22 3.64 -22 5 C-14.74 5 -7.48 5 0 5 C0 3.35 0 1.7 0 0 Z " fill="#EF532B" transform="translate(920,509)"/>
<path d="M0 0 C1.67542976 0.28604898 3.34385343 0.61781233 5 1 C5.33 1.99 5.66 2.98 6 4 C5.67 4.66 5.34 5.32 5 6 C5.55300781 6.27328125 6.10601562 6.5465625 6.67578125 6.828125 C14.44550073 10.74563062 21.85766033 15.02681534 29 20 C28.52188787 24.20738674 28.00531281 26.94220508 25 30 C22.45629883 30.54589844 22.45629883 30.54589844 19.45703125 30.609375 C18.38388672 30.64160156 17.31074219 30.67382812 16.20507812 30.70703125 C14.52575195 30.72830078 14.52575195 30.72830078 12.8125 30.75 C11.68134766 30.77964844 10.55019531 30.80929687 9.38476562 30.83984375 C6.58977167 30.91060309 3.79561472 30.96326976 1 31 C2.24460783 31.67667998 3.49596896 32.34094719 4.75 33 C5.44609375 33.37125 6.1421875 33.7425 6.859375 34.125 C9.23167757 35.25224649 9.23167757 35.25224649 13 35 C14.67225729 35.30404678 16.34080104 35.63128912 18 36 C18.70703125 37.64453125 18.70703125 37.64453125 19 40 C17.63671875 42.76171875 17.63671875 42.76171875 15.6875 45.6875 C15.05199219 46.66074219 14.41648438 47.63398438 13.76171875 48.63671875 C12 51 12 51 10 52 C7.9375 51.375 7.9375 51.375 6 50 C5.94714844 49.24332031 5.89429688 48.48664063 5.83984375 47.70703125 C4.53111616 43.48866745 1.36139513 42.35084939 -2.375 40.3125 C-3.73711064 39.5379916 -5.09909443 38.76326004 -6.4609375 37.98828125 C-7.06728027 37.65352783 -7.67362305 37.31877441 -8.29833984 36.97387695 C-9.90780785 36.05276248 -11.45703701 35.028642 -13 34 C-13.33 34.99 -13.66 35.98 -14 37 C-15.65 36.34 -17.3 35.68 -19 35 C-18.69806907 30.06846152 -17.80057826 26.48013716 -14.82543945 22.48217773 C-10.98555217 19.36435566 -5.912192 20.01343478 -1.1875 20.0625 C-0.11306641 20.04638672 0.96136719 20.03027344 2.06835938 20.01367188 C4.71353758 19.97840283 7.35481915 19.97489255 10 20 C8.42466914 19.13116294 6.83935491 18.28040932 5.25 17.4375 C4.36828125 16.96183594 3.4865625 16.48617188 2.578125 15.99609375 C-0.29637449 14.88549167 -1.15553861 15.16627856 -4 16 C-6.25 14.0625 -6.25 14.0625 -8 12 C-6.85573734 10.186508 -5.70954608 8.37423275 -4.5625 6.5625 C-3.60537109 5.04849609 -3.60537109 5.04849609 -2.62890625 3.50390625 C-1 1 -1 1 0 0 Z " fill="#F0532A" transform="translate(204,316)"/>
<path d="M0 0 C4.7798785 0.61961388 9.04643002 1.96857201 13.5 3.75 C14.13808594 3.98976562 14.77617188 4.22953125 15.43359375 4.4765625 C20.05749602 6.31099407 23.46885421 8.46349587 27 12 C28.03744424 15.1070125 27.7954134 17.8355136 27 21 C24.5 24.0625 24.5 24.0625 22 26 C22.495 26.99 22.495 26.99 23 28 C23.37712577 32.99691647 23.09290612 35.99067725 20 40 C15.70598442 42.86267705 12.04119077 42.59524264 7 42 C3.80739603 40.99892927 0.95370175 39.5590365 -2 38 C-3.85364414 37.08227716 -5.70780965 36.16560663 -7.5625 35.25 C-9.0426892 34.50202007 -10.52223801 33.75276393 -12 33 C-11.67 31.02 -11.34 29.04 -11 27 C-9.35 27.33 -7.7 27.66 -6 28 C-5.79612671 27.13036621 -5.79612671 27.13036621 -5.58813477 26.24316406 C-5.03465403 24.13217154 -4.36283108 22.14874583 -3.58984375 20.109375 C-3.32236328 19.40039062 -3.05488281 18.69140625 -2.77929688 17.9609375 C-2.50150391 17.23132813 -2.22371094 16.50171875 -1.9375 15.75 C-1.51500977 14.63238281 -1.51500977 14.63238281 -1.08398438 13.4921875 C-0.3913087 11.66070607 0.30407907 9.83025077 1 8 C0.34 7.34 -0.32 6.68 -1 6 C-0.625 2.875 -0.625 2.875 0 0 Z M11 12 C10.34 13.98 9.68 15.96 9 18 C11.32854463 19.19838209 11.32854463 19.19838209 14 20 C14.99 19.34 15.98 18.68 17 18 C16.67 16.35 16.34 14.7 16 13 C14.35 12.67 12.7 12.34 11 12 Z M6 25 C4.515 28.465 4.515 28.465 3 32 C5.57213134 33.61949011 6.67669159 34.04408751 9.75 33.625 C10.4925 33.41875 11.235 33.2125 12 33 C12.33 31.68 12.66 30.36 13 29 C9.90672105 26.02324541 9.90672105 26.02324541 6 25 Z " fill="#F0542B" transform="translate(667,167)"/>
<path d="M0 0 C0 0.66 0 1.32 0 2 C0.89138672 2.27650391 0.89138672 2.27650391 1.80078125 2.55859375 C5.00647857 4.65966357 5.8917172 7.60441644 7.1875 11.0625 C7.44869629 11.73482666 7.70989258 12.40715332 7.97900391 13.09985352 C9.84178689 18.08743998 10.8124376 22.65447151 11 28 C8.03 28.495 8.03 28.495 5 29 C4.505 27.515 4.505 27.515 4 26 C3.154375 26.34933594 2.30875 26.69867187 1.4375 27.05859375 C-4.77169902 29.54932926 -10.30350867 31.60608875 -17 32 C-17 33.65 -17 35.3 -17 37 C-18.98 37.66 -20.96 38.32 -23 39 C-27.29873764 29.14872623 -30.97812894 19.96404798 -29 9 C-26.95752086 6.14537781 -26.07274817 6.01558889 -22.5 5.25 C-19 5 -19 5 -16 6 C-15.5875 5.21625 -15.175 4.4325 -14.75 3.625 C-11.39248823 -1.41126766 -5.59894696 -2.79947348 0 0 Z M-9 11 C-8.34 13.64 -7.68 16.28 -7 19 C-4.69 18.34 -2.38 17.68 0 17 C-0.10169161 14.05272465 -0.10169161 14.05272465 -1 11 C-4.64138119 8.7001803 -5.31770988 8.54513992 -9 11 Z M-20 15 C-20.67801034 17.90073181 -20.67801034 17.90073181 -21 21 C-20.34 21.66 -19.68 22.32 -19 23 C-16.39719432 22.67958603 -16.39719432 22.67958603 -14 22 C-14.57452746 18.06924356 -14.57452746 18.06924356 -17 15 C-17.99 15 -18.98 15 -20 15 Z " fill="#EF542B" transform="translate(184,639)"/>
<path d="M0 0 C4.02266462 4.13440531 6.45393244 7.8465779 6.75 13.625 C6.42981974 20.07276806 4.33852416 26.11405351 -0.125 30.8125 C-5.80207398 34.05654227 -10.36183991 34.92683649 -16.75 33.3125 C-19.88518386 32.22458131 -22.94166536 31.09459419 -25.75 29.3125 C-26.245 27.8275 -26.245 27.8275 -26.75 26.3125 C-27.41 26.3125 -28.07 26.3125 -28.75 26.3125 C-32.07884868 21.04182292 -32.71771055 16.37622755 -31.75 10.3125 C-29.9405799 5.41112066 -27.77521806 0.75962824 -23.75 -2.6875 C-16.03958174 -5.11077431 -6.87918098 -4.2213156 0 0 Z M-22.375 9 C-23.85105837 12.10445883 -23.85105837 12.10445883 -24 14.8125 C-21.9531147 18.90627059 -18.77068687 21.22229836 -14.75 23.3125 C-11.64599318 24.05634308 -10.01532656 23.85672109 -6.75 23.3125 C-4.24375244 21.51314278 -3.14250684 20.1236808 -1.8125 17.375 C-1.71667803 14.21287513 -2.82854751 12.79179353 -4.75 10.3125 C-8.87646417 6.67728157 -12.29684057 5.54711097 -17.6875 5.79296875 C-20.10946665 6.21184809 -20.10946665 6.21184809 -22.375 9 Z " fill="#F0532A" transform="translate(191.75,389.6875)"/>
<path d="M0 0 C4.60008404 4.24121224 8.32654761 8.87062459 9.1875 15.1875 C9.31149056 21.28211283 7.17990426 25.34175618 3.6875 30.25 C-0.51910586 34.5544339 -3.97101468 36.15725599 -9.9375 36.4375 C-14.97884639 36.30784359 -17.89989942 34.85224388 -22 32 C-22 31.34 -22 30.68 -22 30 C-22.66 30 -23.32 30 -24 30 C-27.81206217 23.48260338 -29.8941252 18.67457466 -29 11 C-27.29630178 5.72223921 -24.77704757 1.95721992 -20 -1 C-13.47930259 -4.11215103 -6.36626276 -3.15814605 0 0 Z M-18 8 C-19.81453261 10.44961902 -20.00815835 11.812358 -19.875 14.875 C-18.54005335 19.6426666 -16.44089581 22.85467256 -12.5625 25.9375 C-9.43333139 27.23496015 -8.1490228 27.21116262 -5 26 C-2.76789187 24.2019129 -1.33858565 22.80075507 -0.21875 20.15234375 C0.09064553 17.10811272 -1.01400814 15.84672174 -2.75 13.375 C-3.54664063 12.21097656 -3.54664063 12.21097656 -4.359375 11.0234375 C-6.01721738 8.77405889 -6.01721738 8.77405889 -9 7 C-12.4103976 6.78685015 -14.74531799 6.915106 -18 8 Z " fill="#F0532A" transform="translate(290,241)"/>
<path d="M0 0 C2.64 0 5.28 0 8 0 C7.67 5.28 7.34 10.56 7 16 C4.69 16 2.38 16 0 16 C0 15.01 0 14.02 0 13 C-0.99 13.495 -0.99 13.495 -2 14 C-2.46751788 16.35599235 -2.46751788 16.35599235 -2.625 19.0625 C-2.69976562 19.98160156 -2.77453125 20.90070312 -2.8515625 21.84765625 C-2.90054688 22.55792969 -2.94953125 23.26820313 -3 24 C-2.34 24 -1.68 24 -1 24 C-0.67 23.34 -0.34 22.68 0 22 C2.31 22 4.62 22 7 22 C7 27.28 7 32.56 7 38 C4.69 38 2.38 38 0 38 C-0.33 36.68 -0.66 35.36 -1 34 C-1.680625 33.85304688 -2.36125 33.70609375 -3.0625 33.5546875 C-9.45183914 32.07630318 -15.55807786 30.18249848 -21.6875 27.875 C-22.39455078 27.60929199 -23.10160156 27.34358398 -23.83007812 27.06982422 C-28.86019288 25.13980712 -28.86019288 25.13980712 -30 24 C-30.07244053 21.98035801 -30.08377188 19.95832876 -30.0625 17.9375 C-30.05347656 16.83277344 -30.04445312 15.72804688 -30.03515625 14.58984375 C-30.02355469 13.73519531 -30.01195312 12.88054688 -30 12 C-22.62527957 8.77711446 -15.04656106 6.38492072 -7.33862305 4.10693359 C-6.53465088 3.86281738 -5.73067871 3.61870117 -4.90234375 3.3671875 C-3.81167603 3.04403564 -3.81167603 3.04403564 -2.69897461 2.71435547 C-0.79382687 2.13029693 -0.79382687 2.13029693 0 0 Z M-19 18 C-16.4345406 20.5654594 -14.52313332 20.54046087 -11 21 C-11 19.35 -11 17.7 -11 16 C-13.63576683 16 -16.48513411 17.26840265 -19 18 Z " fill="#EF532A" transform="translate(166,512)"/>
<path d="M0 0 C5.2200245 3.67923015 5.2200245 3.67923015 6.26953125 6.92578125 C6.36492188 7.52003906 6.4603125 8.11429688 6.55859375 8.7265625 C7.21859375 8.7265625 7.87859375 8.7265625 8.55859375 8.7265625 C9.2734375 10.4609375 9.2734375 10.4609375 9.55859375 12.7265625 C8.125 14.8671875 8.125 14.8671875 6.12109375 16.9765625 C5.46238281 17.68296875 4.80367187 18.389375 4.125 19.1171875 C3.60808594 19.64828125 3.09117187 20.179375 2.55859375 20.7265625 C-0.60256401 19.35672747 -1.43411545 18.7374987 -3.44140625 15.7265625 C-3.07015625 15.1490625 -2.69890625 14.5715625 -2.31640625 13.9765625 C-1.88328125 12.8628125 -1.88328125 12.8628125 -1.44140625 11.7265625 C-2.33822041 9.59925965 -2.33822041 9.59925965 -3.44140625 7.7265625 C-9.7887142 7.62171736 -9.7887142 7.62171736 -15.44140625 10.140625 C-18.07975747 13.01997946 -19.31916162 15.03384295 -20.00390625 18.9140625 C-19.38384738 22.01435683 -18.66809606 23.49987269 -16.44140625 25.7265625 C-15.45140625 26.0565625 -14.46140625 26.3865625 -13.44140625 26.7265625 C-13.54839844 26.11167969 -13.65539062 25.49679687 -13.765625 24.86328125 C-13.88550781 24.05503906 -14.00539063 23.24679687 -14.12890625 22.4140625 C-14.32033203 21.21330078 -14.32033203 21.21330078 -14.515625 19.98828125 C-14.44140625 17.7265625 -14.44140625 17.7265625 -12.9609375 15.93359375 C-12.45949219 15.53527344 -11.95804688 15.13695312 -11.44140625 14.7265625 C-8.44920357 16.09026549 -6.15114096 17.67564333 -3.69140625 19.8515625 C-3.0778125 20.39039063 -2.46421875 20.92921875 -1.83203125 21.484375 C-1.373125 21.89429688 -0.91421875 22.30421875 -0.44140625 22.7265625 C-1.37630827 28.44282057 -5.37529865 32.82019484 -9.44140625 36.7265625 C-13.78256962 37.77442952 -15.49970984 37.1974107 -19.44140625 35.2265625 C-24.41433322 31.08245669 -29.88280198 26.45180517 -30.6796875 19.7109375 C-30.87770891 13.74945087 -29.83857239 10.63358026 -26.44140625 5.7265625 C-25.88453125 4.8190625 -25.32765625 3.9115625 -24.75390625 2.9765625 C-18.34011774 -3.26388037 -7.83621771 -4.08737115 0 0 Z " fill="#EF532A" transform="translate(795.44140625,241.2734375)"/>
<path d="M0 0 C3.29596886 2.27952495 4.97900907 5.66669456 6.72265625 9.19140625 C7.21765625 10.18140625 7.21765625 10.18140625 7.72265625 11.19140625 C8.32959683 18.12453515 7.94665176 23.97370061 4.72265625 30.19140625 C0.47032648 31.96621338 -3.0276812 30.39547731 -7.27734375 29.19140625 C-6.94734375 26.88140625 -6.61734375 24.57140625 -6.27734375 22.19140625 C-4.62734375 22.19140625 -2.97734375 22.19140625 -1.27734375 22.19140625 C-1.09648888 17.57960697 -1.43063958 14.4010193 -3.27734375 10.19140625 C-5.17046258 9.940802 -7.06711414 9.71679992 -8.96484375 9.50390625 C-10.54845703 9.31248047 -10.54845703 9.31248047 -12.1640625 9.1171875 C-15.81805499 9.20429648 -17.4407038 9.92209429 -20.27734375 12.19140625 C-21.64634729 15.77136884 -21.64634729 15.77136884 -22.27734375 19.19140625 C-20.29734375 18.86140625 -18.31734375 18.53140625 -16.27734375 18.19140625 C-15.94734375 16.87140625 -15.61734375 15.55140625 -15.27734375 14.19140625 C-12.96734375 14.52140625 -10.65734375 14.85140625 -8.27734375 15.19140625 C-8.58484746 17.33796126 -8.89848035 19.4836391 -9.21484375 21.62890625 C-9.47587891 23.42134766 -9.47587891 23.42134766 -9.7421875 25.25 C-10.27734375 28.19140625 -10.27734375 28.19140625 -11.27734375 29.19140625 C-17.50946088 29.65504126 -23.46164745 29.59354168 -29.27734375 27.19140625 C-31.74238474 19.79628328 -30.48809843 12.16411812 -27.27734375 5.19140625 C-25.32648847 2.02967527 -24.00973986 0.56653597 -20.71484375 -1.12109375 C-13.83441697 -2.49717911 -6.56690714 -2.79127264 0 0 Z " fill="#EF532B" transform="translate(915.27734375,582.80859375)"/>
<path d="M0 0 C4.65662942 0.56443993 8.10457129 2.54525049 12 5 C13.52560547 5.94166016 13.52560547 5.94166016 15.08203125 6.90234375 C16.16871094 7.59457031 17.25539063 8.28679687 18.375 9 C19.93347656 9.99 19.93347656 9.99 21.5234375 11 C24 13 24 13 24.97265625 15.015625 C25.02274028 18.65029452 22.90590932 20.99674894 21 24 C19.35 23.67 17.7 23.34 16 23 C15.79375 21.88625 15.5875 20.7725 15.375 19.625 C14.38371699 15.73400805 14.38371699 15.73400805 10.875 14.5625 C9.92625 14.376875 8.9775 14.19125 8 14 C7.67 15.65 7.34 17.3 7 19 C9.64 20.65 12.28 22.3 15 24 C14.125 28.75 14.125 28.75 13 31 C8.48521602 30.46884894 5.65333143 28.63379708 2 26 C1.01 27.65 0.02 29.3 -1 31 C2.03178459 33.22925337 3.31531647 34.09585569 7.125 33.5625 C8.07375 33.376875 9.0225 33.19125 10 33 C10.99 33.66 11.98 34.32 13 35 C12.49701212 39.40114397 10.91227269 41.71195019 8 45 C4.98782888 44.35550393 2.48344164 43.34977818 -0.25 41.9375 C-0.95640625 41.57527344 -1.6628125 41.21304688 -2.390625 40.83984375 C-2.92171875 40.56269531 -3.4528125 40.28554687 -4 40 C-4 39.34 -4 38.68 -4 38 C-4.66 37.773125 -5.32 37.54625 -6 37.3125 C-9.92734533 35.59428642 -13.41260178 33.33225393 -17 31 C-16.67 29.35 -16.34 27.7 -16 26 C-15.11183594 25.81953125 -14.22367188 25.6390625 -13.30859375 25.453125 C-8.83327477 23.48757758 -7.4258847 20.88890229 -5.0625 16.75 C-4.65193359 16.09386719 -4.24136719 15.43773437 -3.81835938 14.76171875 C-1.22547352 10.36299502 -0.81218678 8.10538354 -2 3 C-1.34 2.01 -0.68 1.02 0 0 Z " fill="#EF532A" transform="translate(728,196)"/>
<path d="M0 0 C0.98248524 4.0527516 1.08159574 7.83861737 1 12 C-1.31 12.33 -3.62 12.66 -6 13 C-6 11.35 -6 9.7 -6 8 C-8.64 8.66 -11.28 9.32 -14 10 C-14 11.98 -14 13.96 -14 16 C-8.06 15.505 -8.06 15.505 -2 15 C-1.61936779 17.3260857 -1.28730055 19.66055264 -1 22 C-2.73956658 23.73956658 -5.1936622 23.37190386 -7.5625 23.5625 C-9.08037109 23.68818359 -9.08037109 23.68818359 -10.62890625 23.81640625 C-11.80259766 23.90728516 -11.80259766 23.90728516 -13 24 C-12.67 25.98 -12.34 27.96 -12 30 C-8.56206661 29.81870185 -8.56206661 29.81870185 -5 29 C-3.48705712 27.06402968 -3.48705712 27.06402968 -3 25 C-1.02 25 0.96 25 3 25 C3.495 30.94 3.495 30.94 4 37 C0.47950563 37.33729287 -3.04132453 37.66995949 -6.5625 38 C-8.0484668 38.14308594 -8.0484668 38.14308594 -9.56445312 38.2890625 C-14.73540428 38.77008121 -19.80684952 39.11653634 -25 39 C-25 37.02 -25 35.04 -25 33 C-24.01 32.505 -24.01 32.505 -23 32 C-23.66 24.74 -24.32 17.48 -25 10 C-25.99 10 -26.98 10 -28 10 C-28.33 7.69 -28.66 5.38 -29 3 C-25.10480894 2.49491028 -21.20875343 1.99682267 -17.3125 1.5 C-16.20970703 1.35691406 -15.10691406 1.21382812 -13.97070312 1.06640625 C-12.90400391 0.93105469 -11.83730469 0.79570312 -10.73828125 0.65625 C-9.75899658 0.53056641 -8.77971191 0.40488281 -7.77075195 0.27539062 C-5.15767911 0.01567205 -2.62364032 -0.05025329 0 0 Z " fill="#F0542B" transform="translate(504,143)"/>
<path d="M0 0 C1.70683085 6.29301112 2.7521201 12.54247009 3.625 19 C3.82609375 20.44826172 3.82609375 20.44826172 4.03125 21.92578125 C4.35804154 24.28334876 4.68087073 26.64138524 5 29 C2.69 29.33 0.38 29.66 -2 30 C-2 28.68 -2 27.36 -2 26 C-3.010625 26.28875 -4.02125 26.5775 -5.0625 26.875 C-11.59170484 28.52796325 -18.32510768 29.18302099 -25 30 C-25 31.32 -25 32.64 -25 34 C-26.98 34 -28.96 34 -31 34 C-31.67918695 30.66909377 -32.34102292 27.33495832 -33 24 C-33.19078125 23.06542969 -33.3815625 22.13085938 -33.578125 21.16796875 C-34.6554671 15.66582872 -35.21153456 10.60566572 -35 5 C-31.04 5 -27.08 5 -23 5 C-23 6.98 -23 8.96 -23 11 C-24.32 11.33 -25.64 11.66 -27 12 C-26.67 14.31 -26.34 16.62 -26 19 C-23.69 19 -21.38 19 -19 19 C-19.165 18.34 -19.33 17.68 -19.5 17 C-20.12183299 13.26900206 -20.06408926 9.78126622 -20 6 C-17.69 6 -15.38 6 -13 6 C-12.67 9.63 -12.34 13.26 -12 17 C-8.535 16.505 -8.535 16.505 -5 16 C-5.33 13.36 -5.66 10.72 -6 8 C-7.32 8 -8.64 8 -10 8 C-10.33 5.69 -10.66 3.38 -11 1 C-7.27569643 0.30710631 -3.78916254 -0.11144596 0 0 Z " fill="#F0542B" transform="translate(174,578)"/>
<path d="M0 0 C0.89332031 0.22042969 1.78664063 0.44085937 2.70703125 0.66796875 C4.05861328 0.98701172 4.05861328 0.98701172 5.4375 1.3125 C6.46810547 1.58126953 6.46810547 1.58126953 7.51953125 1.85546875 C7.18953125 4.16546875 6.85953125 6.47546875 6.51953125 8.85546875 C3.51953125 9.85546875 3.51953125 9.85546875 0.51953125 9.85546875 C0.18953125 12.82546875 -0.14046875 15.79546875 -0.48046875 18.85546875 C4.18121815 16.5246253 5.7265495 14.11411553 8.640625 9.94921875 C10.8330724 7.5060757 12.36215066 6.69775778 15.51953125 5.85546875 C20.01885981 5.98445456 23.57871999 7.09823042 27.08203125 9.91796875 C29.40401663 14.6628954 29.28398089 19.04599459 27.90625 24.109375 C26.75758579 27.30796304 25.40593897 30.02585718 23.51953125 32.85546875 C19.20178545 32.34749866 15.48651011 31.65864096 11.51953125 29.85546875 C12.17953125 27.87546875 12.83953125 25.89546875 13.51953125 23.85546875 C15.49953125 23.85546875 17.47953125 23.85546875 19.51953125 23.85546875 C19.51953125 21.21546875 19.51953125 18.57546875 19.51953125 15.85546875 C15.43544016 19.06439746 12.08318301 22.36278109 8.81640625 26.40234375 C6.7000678 28.77366274 5.49021972 28.85772348 2.26953125 29.10546875 C-1.81313863 28.83329076 -4.06746894 28.07788723 -7.48046875 25.85546875 C-10.44846659 21.23633218 -10.08694498 16.14569513 -9.48046875 10.85546875 C-7.96911717 6.29907875 -5.49909283 -0.32041958 0 0 Z " fill="#F0532A" transform="translate(880.48046875,641.14453125)"/>
<path d="M0 0 C1.421875 1.390625 1.421875 1.390625 2.75 3.25 C3.19859375 3.85328125 3.6471875 4.4565625 4.109375 5.078125 C5 7 5 7 4.80078125 9.15625 C4 11 4 11 1.4375 12.25 C0.633125 12.4975 -0.17125 12.745 -1 13 C-1.33 12.01 -1.66 11.02 -2 10 C-3.98 11.32 -5.96 12.64 -8 14 C-6.68 15.32 -5.36 16.64 -4 18 C-3.52949219 17.62746094 -3.05898438 17.25492188 -2.57421875 16.87109375 C-1.95160156 16.39800781 -1.32898438 15.92492187 -0.6875 15.4375 C-0.07261719 14.96183594 0.54226563 14.48617187 1.17578125 13.99609375 C1.77777344 13.66738281 2.37976563 13.33867187 3 13 C3.99 13.33 4.98 13.66 6 14 C6.33 16.31 6.66 18.62 7 21 C4.69 22.32 2.38 23.64 0 25 C0.66 26.65 1.32 28.3 2 30 C2.78375 29.938125 3.5675 29.87625 4.375 29.8125 C5.674375 29.9053125 5.674375 29.9053125 7 30 C9 33 9 33 8.83203125 35.0234375 C7.34994903 38.54425253 4.14053179 40.03543827 1 42 C-0.0828125 42.680625 -0.0828125 42.680625 -1.1875 43.375 C-3.5769355 44.19894327 -4.71277417 44.06737205 -7 43 C-8.25 40.9375 -8.25 40.9375 -9 39 C-8.34 38.01 -7.68 37.02 -7 36 C-7.7425 34.989375 -8.485 33.97875 -9.25 32.9375 C-12.38088995 28.55247515 -15.28613592 24.14159223 -17 19 C-18.32 19.33 -19.64 19.66 -21 20 C-24 16.375 -24 16.375 -24 13 C-22.6105957 11.7890625 -22.6105957 11.7890625 -20.67578125 10.625 C-19.97646484 10.19703125 -19.27714844 9.7690625 -18.55664062 9.328125 C-17.81607422 8.88984375 -17.07550781 8.4515625 -16.3125 8 C-15.2306543 7.34257812 -15.2306543 7.34257812 -14.12695312 6.671875 C-12.72231052 5.82010998 -11.31370917 4.9748328 -9.90087891 4.13671875 C-8.30550894 3.18269325 -6.73363551 2.18952673 -5.16796875 1.1875 C-3 0 -3 0 0 0 Z " fill="#EF522A" transform="translate(334,197)"/>
<path d="M0 0 C4.82360189 -0.19294408 8.49646738 0.24252386 13 2 C12.67 3.98 12.34 5.96 12 8 C10.02 8 8.04 8 6 8 C6.22968951 11.98128488 6.40576317 14.31572728 9.0625 17.375 C13.37717136 19.76183948 17.37269949 20.56806497 22.3125 19.5 C25.03156684 17.0830517 25.86370866 14.40887402 27 11 C27.25269417 7.70714899 27.25269417 7.70714899 27 5 C29.33294775 4.95758277 31.66702567 4.95907063 34 5 C35.77368347 6.77368347 35.1727488 9.28895425 35.1875 11.6875 C35.16074231 16.17743966 34.84929766 19.83908027 33 24 C32.34 24 31.68 24 31 24 C30.7525 24.598125 30.505 25.19625 30.25 25.8125 C28.75005486 28.43740399 27.60451497 29.45465445 25 31 C17.08877111 32.08146109 9.57153273 31.81691694 3 27 C-0.54952482 24.17858283 -1.33494208 22.40444018 -2 18 C-2.36211089 11.74306073 -2.59259992 5.83334981 0 0 Z " fill="#EF542A" transform="translate(146,450)"/>
<path d="M0 0 C1.78770907 2.1335282 3.46872824 4.26844058 5.125 6.5 C5.59292969 7.12003906 6.06085937 7.74007813 6.54296875 8.37890625 C7.70096609 9.91502517 8.85121357 11.45698059 10 13 C8.25 16.8984375 8.25 16.8984375 6 17.8125 C4 18 4 18 2 17 C1.31292969 17.56589844 0.62585938 18.13179688 -0.08203125 18.71484375 C-0.98308594 19.44832031 -1.88414062 20.18179687 -2.8125 20.9375 C-3.70582031 21.66839844 -4.59914063 22.39929688 -5.51953125 23.15234375 C-8 25 -8 25 -11 26 C-11 26.66 -11 27.32 -11 28 C-11.66 28.33 -12.32 28.66 -13 29 C-12.938125 29.763125 -12.87625 30.52625 -12.8125 31.3125 C-13 34 -13 34 -14.25 35.875 C-16 37 -16 37 -17.9375 37.0625 C-21.02875532 35.47003514 -22.1559426 32.90578742 -24 30 C-24.9075 29.113125 -25.815 28.22625 -26.75 27.3125 C-29 25 -29 25 -29 22 C-26 20 -26 20 -23.1640625 20.140625 C-18.97809231 19.95458188 -17.49704033 18.47628874 -14.375 15.75 C-13.45460938 14.96109375 -12.53421875 14.1721875 -11.5859375 13.359375 C-8.18208483 10.28973206 -8.18208483 10.28973206 -5 7 C-5.13641377 4.78141747 -5.13641377 4.78141747 -6 3 C-2.25 0 -2.25 0 0 0 Z " fill="#EF5329" transform="translate(832,279)"/>
<path d="M0 0 C1.98 0 3.96 0 6 0 C6.50744423 1.89385437 7.00564574 3.79018666 7.5 5.6875 C7.7784375 6.74324219 8.056875 7.79898437 8.34375 8.88671875 C8.9391715 11.71142672 9.12786492 14.12836708 9 17 C6.03 17.495 6.03 17.495 3 18 C2.67 17.34 2.34 16.68 2 16 C0.91460938 16.144375 -0.17078125 16.28875 -1.2890625 16.4375 C-2.7343491 16.62519956 -4.17966307 16.81268838 -5.625 17 C-6.33785156 17.09539062 -7.05070313 17.19078125 -7.78515625 17.2890625 C-11.88821609 17.81606101 -15.85245742 18.10466984 -20 18 C-20 19.65 -20 21.3 -20 23 C-21.98 23.33 -23.96 23.66 -26 24 C-26.50904657 22.12743583 -27.00682455 20.25180659 -27.5 18.375 C-27.7784375 17.33085937 -28.056875 16.28671875 -28.34375 15.2109375 C-28.99118596 12.04312582 -29.1161292 9.22258533 -29 6 C-27.02 6 -25.04 6 -23 6 C-23 6.66 -23 7.32 -23 8 C-15.41 7.01 -7.82 6.02 0 5 C0 3.35 0 1.7 0 0 Z " fill="#F0542B" transform="translate(913,458)"/>
<path d="M0 0 C0.66 0.33 1.32 0.66 2 1 C-1.3 4.3 -4.6 7.6 -8 11 C-8 8 -8 8 -5.6875 5.5 C-4.800625 4.675 -3.91375 3.85 -3 3 C-2.401875 2.401875 -1.80375 1.80375 -1.1875 1.1875 C-0.795625 0.795625 -0.40375 0.40375 0 0 Z " fill="#EA4522" transform="translate(712,618)"/>
</svg>
